<?xml version="1.0" encoding="UTF-8"?>
<svg version="1.1" xmlns="http://www.w3.org/2000/svg" width="512" height="512">
<path d="M0 0 C0.76075836 -0.0066568 1.52151672 -0.0133136 2.30532837 -0.02017212 C3.91413965 -0.03029173 5.52299286 -0.03498935 7.13183594 -0.03466797 C9.58599557 -0.0390348 12.03834683 -0.07534034 14.4921875 -0.11328125 C16.05728553 -0.11915099 17.62239209 -0.12311933 19.1875 -0.125 C19.91786469 -0.13937103 20.64822937 -0.15374207 21.40072632 -0.16854858 C26.29676578 -0.12492892 28.7963267 0.84553639 32.2265625 4.3359375 C33.78633314 7.45547878 33.34760376 10.76553134 33.32421875 14.1875 C33.32209633 15.34854752 33.32209633 15.34854752 33.31993103 16.53305054 C33.31432653 19.00905192 33.30177333 21.48496338 33.2890625 23.9609375 C33.28404808 25.63801953 33.27948507 27.31510297 33.27539062 28.9921875 C33.26435565 33.10680556 33.24708804 37.22135628 33.2265625 41.3359375 C36.1965625 41.8309375 36.1965625 41.8309375 39.2265625 42.3359375 C39.33452148 41.64371094 39.44248047 40.95148437 39.55371094 40.23828125 C40.77579792 34.96681173 43.31071449 30.16094809 45.58154297 25.27050781 C46.47140671 23.34708166 47.34340445 21.41620486 48.21484375 19.484375 C48.78537979 18.246898 49.35696084 17.00990216 49.9296875 15.7734375 C50.69780762 14.10087891 50.69780762 14.10087891 51.48144531 12.39453125 C53.37691414 9.07242248 55.32031729 6.81448067 58.2265625 4.3359375 C64.50330786 2.68989305 68.26631131 3.59189621 73.9765625 6.3984375 C74.66322998 6.71917236 75.34989746 7.03990723 76.05737305 7.37036133 C77.45254995 8.02656261 78.84352031 8.69178753 80.22998047 9.36621094 C82.08395135 10.26667222 83.95355852 11.13474348 85.82421875 12 C95.34186199 16.51018331 95.34186199 16.51018331 97.2265625 20.3359375 C98.00154199 26.79069208 96.74422386 31.67224348 93.9453125 37.43359375 C93.61237183 38.1533287 93.27943115 38.87306366 92.93640137 39.61460876 C91.88231861 41.88371179 90.80505133 44.14084913 89.7265625 46.3984375 C89.00233615 47.94653208 88.27966472 49.49535507 87.55859375 51.04492188 C85.7990983 54.81724609 84.01874026 58.5790372 82.2265625 62.3359375 C84.64548608 65.41225905 86.92597422 68.07162171 89.9765625 70.5234375 C92.43175738 72.51401079 94.07378003 74.04593686 95.55664062 76.8605957 C97.43981689 80.30094077 98.97596134 82.08530596 102.2265625 84.3359375 C109.90829168 86.17642346 118.14052172 85.50712163 125.9765625 85.3359375 C129.23422906 85.30755978 132.4915488 85.29310213 135.74932861 85.28662109 C137.77057579 85.2779879 139.79182876 85.25415151 141.81268311 85.21337891 C143.18496063 85.19476807 143.18496063 85.19476807 144.58496094 85.17578125 C145.3868988 85.15894287 146.18883667 85.14210449 147.01507568 85.12475586 C149.52250172 85.36419764 151.08668033 86.02776607 153.2265625 87.3359375 C155.3081527 90.01226776 155.22243841 91.45347418 155.1015625 94.8984375 C154.2265625 98.3359375 154.2265625 98.3359375 152.44939423 100.02613068 C149.97024505 101.48697293 148.63724133 101.71645828 145.78625488 101.73034668 C144.90305069 101.74169647 144.0198465 101.75304626 143.10987854 101.76473999 C142.14871628 101.76180939 141.18755402 101.75887878 140.19726562 101.75585938 C139.17898178 101.76432892 138.16069794 101.77279846 137.11155701 101.78152466 C133.74351537 101.80493595 130.37592937 101.8059159 127.0078125 101.8046875 C124.66898413 101.81178588 122.33015751 101.8194844 119.99133301 101.82775879 C115.08873655 101.84121262 110.18630117 101.84276794 105.28369141 101.83691406 C98.9950674 101.83101317 92.70721414 101.86162239 86.41873932 101.90203094 C81.58892641 101.92785277 76.75930053 101.93079042 71.9294281 101.92713928 C69.6105302 101.92883528 67.29162409 101.93852362 64.97279358 101.95628357 C61.73328701 101.9783665 58.49535957 101.96882513 55.25585938 101.95117188 C54.29469711 101.96443512 53.33353485 101.97769836 52.34324646 101.99136353 C45.85837307 101.90906358 45.85837307 101.90906358 42.6348877 98.98498535 C40.88855365 95.7001457 40.5390592 94.00262177 41.2265625 90.3359375 C43.9647385 86.78761536 45.45157631 85.47447994 49.9152832 84.67651367 C51.3271375 84.63574923 52.73992228 84.62116904 54.15234375 84.62890625 C54.89993454 84.61378494 55.64752533 84.59866364 56.41777039 84.58308411 C58.79184337 84.54029669 61.16464281 84.5313787 63.5390625 84.5234375 C65.15433052 84.50028592 66.76956841 84.47491919 68.38476562 84.44726562 C72.33214336 84.38450293 76.27873004 84.35209766 80.2265625 84.3359375 C79.23914063 83.51609375 78.25171875 82.69625 77.234375 81.8515625 C75.93980668 80.76337464 74.64555219 79.67481336 73.3515625 78.5859375 C72.70058594 78.04710938 72.04960937 77.50828125 71.37890625 76.953125 C70.75371094 76.42460938 70.12851562 75.89609375 69.484375 75.3515625 C68.9083252 74.86977539 68.33227539 74.38798828 67.73876953 73.89160156 C64.78976873 70.85785389 64.26626039 68.81240411 63.91015625 64.53833008 C64.0272131 60.28229288 65.38601777 56.86053168 67.2890625 53.09765625 C67.59980713 52.4502095 67.91055176 51.80276276 68.23071289 51.13569641 C69.21485242 49.09086732 70.21932946 47.05697631 71.2265625 45.0234375 C72.23026131 42.97057029 73.22942516 40.91569039 74.22241211 38.85762024 C74.83862467 37.58320694 75.46158706 36.31202993 76.09204102 35.04460144 C77.45152776 32.25775619 78.2265625 30.48389723 78.2265625 27.3359375 C74.2665625 25.6859375 70.3065625 24.0359375 66.2265625 22.3359375 C65.58424683 23.7585791 65.58424683 23.7585791 64.92895508 25.20996094 C63.33001276 28.74211193 61.71386844 32.2661665 60.0925293 35.78808594 C59.39448253 37.31068527 58.7010589 38.83541326 58.01245117 40.36230469 C57.0192226 42.56246733 56.00937039 44.7543239 54.99609375 46.9453125 C54.54264336 47.96428619 54.54264336 47.96428619 54.08003235 49.00384521 C51.76351113 53.94964622 49.10956271 56.8944374 44.2265625 59.3359375 C36.39377422 60.03218535 27.38495012 58.68924592 21.0390625 53.9609375 C17.59504765 48.97305392 16.98151538 45.10916257 17.03125 39.06640625 C17.0340799 38.38540359 17.03690979 37.70440094 17.03982544 37.00276184 C17.05095725 34.84280295 17.07604793 32.68326956 17.1015625 30.5234375 C17.11160139 29.05274039 17.12072565 27.58203674 17.12890625 26.11132812 C17.1491662 22.51923825 17.18832583 18.92806018 17.2265625 15.3359375 C12.2765625 15.3359375 7.3265625 15.3359375 2.2265625 15.3359375 C2.27296875 17.57632812 2.319375 19.81671875 2.3671875 22.125 C2.3984363 24.30938454 2.42269348 26.49374361 2.44628906 28.67822266 C2.46633041 30.18940486 2.49357155 31.70051022 2.52832031 33.21142578 C2.57717359 35.39114393 2.59960474 37.56983181 2.6171875 39.75 C2.63813477 41.0592041 2.65908203 42.3684082 2.68066406 43.71728516 C2.1493038 47.95159794 0.90550547 50.05444517 -1.7734375 53.3359375 C-9.42223582 58.09518979 -21.95619807 59.6998925 -30.77050781 58.0324707 C-35.51384467 56.3829412 -38.13196441 51.53954128 -40.37817383 47.32495117 C-42.02807224 43.87343091 -43.60217737 40.3975669 -45.1484375 36.8984375 C-45.69814244 35.67724932 -46.24891606 34.4565416 -46.80078125 33.23632812 C-48.13548088 30.27423159 -49.45590712 27.30571067 -50.7734375 24.3359375 C-54.7334375 25.9859375 -58.6934375 27.6359375 -62.7734375 29.3359375 C-61.94290666 33.48859172 -61.07836637 36.11705425 -59.26953125 39.828125 C-58.52993164 41.38080078 -58.52993164 41.38080078 -57.77539062 42.96484375 C-56.73473676 45.12410308 -55.68788069 47.28038452 -54.63476562 49.43359375 C-49.79217761 59.65189873 -49.79217761 59.65189873 -50.7734375 65.3359375 C-52.71936823 69.88097851 -56.1214527 72.56174072 -59.8984375 75.5859375 C-61.07637125 76.56251366 -62.25214377 77.54170232 -63.42578125 78.5234375 C-63.99925293 79.00296875 -64.57272461 79.4825 -65.16357422 79.9765625 C-86.90036263 98.33119366 -95.0018189 123.91150082 -97.7734375 151.3359375 C-96.76925781 150.87703125 -95.76507813 150.418125 -94.73046875 149.9453125 C-73.42022035 140.3359375 -73.42022035 140.3359375 -65.7734375 140.3359375 C-65.57041016 139.28019531 -65.57041016 139.28019531 -65.36328125 138.203125 C-62.41485563 124.6792087 -56.68410077 113.97738072 -46.7734375 104.3359375 C-46.08636719 103.62824219 -45.39929688 102.92054687 -44.69140625 102.19140625 C-31.1919139 89.09264094 -13.36814509 85.17842333 4.8515625 85.0859375 C6.38683594 85.055 6.38683594 85.055 7.953125 85.0234375 C17.35921714 84.97444744 17.35921714 84.97444744 21.2265625 88.3359375 C22.67087105 91.22455459 22.60344756 93.13241451 22.2265625 96.3359375 C20.15509837 99.34375642 18.52594709 101.09206904 14.85253906 101.78149414 C11.94889115 101.94781101 9.07236205 101.97674979 6.1640625 101.9609375 C-10.26559387 102.28351431 -23.22238632 105.32081288 -35.4453125 116.87109375 C-40.89210845 122.63775188 -45.02497558 128.89892289 -47.7734375 136.3359375 C-46.98582031 136.20316406 -46.19820312 136.07039062 -45.38671875 135.93359375 C-43.75283203 135.66869141 -43.75283203 135.66869141 -42.0859375 135.3984375 C-41.03019531 135.22441406 -39.97445312 135.05039063 -38.88671875 134.87109375 C-13.48756352 131.2690798 15.25247708 131.68654667 40.44238281 137.01635742 C41.82055176 137.17454956 41.82055176 137.17454956 43.2265625 137.3359375 C45.79235139 135.21001896 45.79235139 135.21001896 47.9765625 132.2109375 C53.15281847 125.92299571 58.58705076 122.88244141 66.2265625 120.3359375 C68.92783474 120.21918592 71.60428946 120.15786672 74.30639648 120.14306641 C75.54099609 120.13080017 75.54099609 120.13080017 76.80053711 120.11828613 C79.52456944 120.09346962 82.24854991 120.07692877 84.97265625 120.0625 C85.90268023 120.05717632 86.8327042 120.05185265 87.79091072 120.04636765 C92.71028952 120.01965672 97.62964307 120.00027227 102.54907227 119.98583984 C107.63487853 119.96916574 112.7200401 119.92435923 117.80560207 119.8734684 C121.71320869 119.83985879 125.62066075 119.82826957 129.52839851 119.82261276 C131.40354421 119.81588656 133.27867926 119.80062906 135.15368462 119.77672195 C137.77544153 119.74519147 140.39543819 119.74501448 143.01733398 119.75244141 C143.79305252 119.73603607 144.56877106 119.71963074 145.36799622 119.70272827 C149.19199362 119.74713272 150.88312888 120.02075883 153.74354553 122.64584351 C155.76609627 126.31461581 155.33139387 128.35854456 154.2265625 132.3359375 C152.64770284 134.39531966 151.53513827 135.18164961 149.2265625 136.3359375 C147.19423616 136.42121378 145.15909244 136.44309885 143.125 136.43359375 C141.91328125 136.43037109 140.7015625 136.42714844 139.453125 136.42382812 C138.18210937 136.41544922 136.91109375 136.40707031 135.6015625 136.3984375 C134.3228125 136.39392578 133.0440625 136.38941406 131.7265625 136.38476562 C128.55984958 136.37294953 125.39322894 136.35647565 122.2265625 136.3359375 C122.3922876 137.17584229 122.5580127 138.01574707 122.72875977 138.88110352 C123.25489992 142.53260395 123.27065869 145.92626827 123.19140625 149.61328125 C122.74403467 170.80809873 122.74403467 170.80809873 132.921875 188.72998047 C135.20633373 191.54195082 136.72429449 194.709684 138.2890625 197.9609375 C138.60818604 198.62053467 138.92730957 199.28013184 139.25610352 199.9597168 C140.26360346 202.07746099 141.24729317 204.20500221 142.2265625 206.3359375 C142.5860498 207.10615234 142.94553711 207.87636719 143.31591797 208.66992188 C156.26933437 236.65604495 163.74367646 266.89950073 168.2265625 297.3359375 C169.32355469 297.27792969 170.42054688 297.21992188 171.55078125 297.16015625 C173.00516564 297.11324062 174.45959624 297.06774239 175.9140625 297.0234375 C176.63529297 296.98154297 177.35652344 296.93964844 178.09960938 296.89648438 C179.15825195 296.87231445 179.15825195 296.87231445 180.23828125 296.84765625 C180.88240967 296.82147217 181.52653809 296.79528809 182.19018555 296.76831055 C186.51778453 297.97460088 188.85676595 301.75665922 191.17114258 305.38208008 C191.77337646 306.48704834 192.37561035 307.5920166 192.99609375 308.73046875 C193.48489265 309.61879646 193.48489265 309.61879646 193.98356628 310.52507019 C195.01021092 312.39520488 196.0247725 314.27157888 197.0390625 316.1484375 C197.73813979 317.42686597 198.43800248 318.70486529 199.13867188 319.98242188 C200.84519616 323.09455669 202.53655629 326.21480428 204.2265625 329.3359375 C206.45153498 320.16735896 208.24480034 310.98006375 209.8203125 301.6796875 C210.05484873 300.32008474 210.29000975 298.96058962 210.52575684 297.60119629 C211.51425041 291.89835833 212.49661801 286.19451464 213.46533203 280.48828125 C214.06296385 276.97042364 214.67064705 273.45442627 215.28474426 269.93940735 C215.6261476 267.96817016 215.95643584 265.99501824 216.28649902 264.02185059 C216.49681763 262.82290161 216.70713623 261.62395264 216.92382812 260.38867188 C217.10353149 259.33756226 217.28323486 258.28645264 217.46838379 257.20349121 C218.28241464 254.12469575 219.39295792 251.93053511 221.2265625 249.3359375 C224.07980687 247.90931531 226.06110799 248.02559882 229.2265625 248.3359375 C234.12994401 250.91021279 235.98489891 255.2385901 238.4453125 259.96484375 C240.89619737 264.60325086 243.49176591 269.14973825 246.24145508 273.61791992 C248.56138204 277.39373442 250.59948816 281.08902097 252.33203125 285.171875 C254.57268912 290.0012396 256.6282415 294.39506875 261.2265625 297.3359375 C269.44549583 299.32305795 278.01243192 298.73426253 286.37670898 298.05981445 C289.2265625 298.3359375 289.2265625 298.3359375 291.58227539 300.11791992 C293.94449416 303.30437241 293.71024482 305.46647898 293.2265625 309.3359375 C291.46641119 312.5209732 290.72765334 313.16890722 287.2265625 314.3359375 C284.75993961 314.44430644 282.32240573 314.49994941 279.85546875 314.50390625 C278.77736183 314.50889885 278.77736183 314.50889885 277.67747498 314.51399231 C276.15860635 314.51905043 274.63972664 314.52140098 273.12084961 314.52124023 C270.80108278 314.52342617 268.48179206 314.5415916 266.16210938 314.56054688 C264.68489746 314.56348117 263.20768328 314.56546572 261.73046875 314.56640625 C261.03869034 314.57359177 260.34691193 314.58077728 259.63417053 314.58818054 C256.00373295 314.57101515 253.18023812 314.54944465 250.2265625 312.3359375 C248.45898437 310.00097656 248.45898437 310.00097656 246.6953125 307.1015625 C246.04949219 306.05226563 245.40367187 305.00296875 244.73828125 303.921875 C244.07441406 302.82101562 243.41054688 301.72015625 242.7265625 300.5859375 C241.4042895 298.42408534 240.08139136 296.2626154 238.7578125 294.1015625 C238.14421875 293.09416016 237.530625 292.08675781 236.8984375 291.04882812 C235.07634104 288.09217861 233.189562 285.20031433 231.2265625 282.3359375 C229.82107171 287.00511792 228.75474453 291.56436687 227.96142578 296.38525391 C227.85051605 297.051241 227.73960632 297.71722809 227.62533569 298.40339661 C227.38696321 299.83591283 227.15023432 301.26870335 226.91501236 302.70174026 C226.54104027 304.97293526 226.16014621 307.24286666 225.77706909 309.51254272 C224.68889589 315.96099225 223.60488916 322.41004709 222.54541016 328.86328125 C221.89490513 332.8223344 221.22950427 336.77863674 220.55437851 340.73356247 C220.30086833 342.23567936 220.05290661 343.73874396 219.81070328 345.24272537 C219.47136306 347.3462647 219.11310655 349.44577665 218.75048828 351.54541016 C218.55222443 352.73897125 218.35396057 353.93253235 218.14968872 355.16226196 C217.11606198 358.7158344 215.77656154 360.68049549 213.2265625 363.3359375 C210.1401045 364.63549876 208.66101275 364.46260116 205.453125 363.52734375 C200.52389409 360.17952469 198.62364373 355.50687234 195.9765625 350.2734375 C194.83943252 348.09849234 193.70140223 345.92401766 192.5625 343.75 C192.00272461 342.66879883 191.44294922 341.58759766 190.86621094 340.47363281 C188.52220179 335.98804533 186.07255325 331.56498381 183.6015625 327.1484375 C183.2003418 326.4258374 182.79912109 325.7032373 182.38574219 324.95874023 C181.65747525 323.65014537 180.9223835 322.34531183 180.17871094 321.04541016 C179.33573278 319.53194014 178.57520852 317.97318852 177.828125 316.41015625 C176.33236709 314.00555837 176.33236709 314.00555837 173.12646484 313.70629883 C172.16949707 313.58407959 171.2125293 313.46186035 170.2265625 313.3359375 C170.36731201 314.38442871 170.50806152 315.43291992 170.65307617 316.51318359 C172.19691714 328.68621686 172.58610187 340.69938657 172.5390625 352.9609375 C172.53757202 353.92472321 172.53608154 354.88850891 172.5345459 355.88150024 C172.49381269 370.55320833 172.00261137 384.88685495 169.2265625 399.3359375 C169.08202637 400.11275879 168.93749023 400.88958008 168.78857422 401.68994141 C165.35966599 419.50279687 158.80325673 442.26232397 143.2265625 453.3359375 C136.76751696 457.07976366 130.68573789 460.22918064 123.2265625 461.3359375 C123.23544495 461.90112595 123.24432739 462.46631439 123.253479 463.04862976 C123.34205147 468.93718338 123.40233763 474.82554742 123.44628906 480.71459961 C123.46639017 482.91161792 123.49367556 485.10858282 123.52832031 487.30541992 C123.57690343 490.46546616 123.59954655 493.62480437 123.6171875 496.78515625 C123.63783264 497.76554367 123.65847778 498.74593109 123.67974854 499.75602722 C123.68119105 504.15138706 123.6537509 506.63420643 121.32714844 510.45605469 C119.06243089 512.48282422 118.21765921 512.99775126 115.2265625 512.8984375 C114.5665625 512.89972656 113.9065625 512.90101563 113.2265625 512.90234375 C110.13400245 512.02652108 109.13927723 510.95842182 107.2265625 508.3359375 C106.65895706 504.92418797 106.76202421 501.55169054 106.8359375 498.1015625 C106.84159729 497.10840027 106.84725708 496.11523804 106.85308838 495.09197998 C106.87546224 491.92280691 106.92566144 488.7547683 106.9765625 485.5859375 C106.99662615 483.43621426 107.01487716 481.28647327 107.03125 479.13671875 C107.07533011 473.86940521 107.14225217 468.60275241 107.2265625 463.3359375 C106.33702881 463.35043945 105.44749512 463.36494141 104.53100586 463.37988281 C97.16052725 463.44886249 90.07297879 463.20123329 82.7890625 462.0859375 C81.56993164 461.92158203 81.56993164 461.92158203 80.32617188 461.75390625 C72.45765474 460.60123219 64.87260226 458.47341585 57.2265625 456.3359375 C57.23544495 456.96376633 57.24432739 457.59159515 57.253479 458.2384491 C57.34200705 464.77581677 57.40231962 471.31301402 57.44628906 477.85083008 C57.46639814 480.29035357 57.49368933 482.7298289 57.52832031 485.16918945 C57.57686739 488.67671598 57.59953882 492.18360493 57.6171875 495.69140625 C57.63783264 496.78116257 57.65847778 497.87091888 57.67974854 498.99369812 C57.68199156 506.57142548 57.68199156 506.57142548 55.32714844 510.52441406 C53.06188961 512.47794968 52.17585315 512.99636317 49.2265625 512.8984375 C48.5665625 512.89972656 47.9065625 512.90101563 47.2265625 512.90234375 C44.32101576 512.07948383 43.12925066 510.65509991 41.2265625 508.3359375 C40.74554443 505.690979 40.74554443 505.690979 40.77246094 502.64941406 C40.77276306 501.50853333 40.77306519 500.36765259 40.77337646 499.19219971 C40.79402161 497.96603943 40.81466675 496.73987915 40.8359375 495.4765625 C40.84159729 494.21704773 40.84725708 492.95753296 40.85308838 491.65985107 C40.87168203 488.31884726 40.90758922 484.97894283 40.9519043 481.63824463 C40.99289748 478.22637411 41.01110791 474.81438981 41.03125 471.40234375 C41.07536586 464.7132383 41.142316 458.02465136 41.2265625 451.3359375 C40.23878311 451.0456945 40.23878311 451.0456945 39.23104858 450.74958801 C32.63543743 448.79460645 26.24466039 446.56499187 19.8515625 444.0234375 C18.79461182 443.60336426 17.73766113 443.18329102 16.64868164 442.75048828 C3.47085643 437.3824921 -9.14895504 430.87860425 -21.7734375 424.3359375 C-21.78802002 425.49641602 -21.80260254 426.65689453 -21.81762695 427.85253906 C-21.87563691 432.16160768 -21.95286957 436.4701552 -22.03588867 440.77880859 C-22.06912534 442.64298032 -22.09716123 444.50725237 -22.11987305 446.37158203 C-22.15344238 449.05284341 -22.20575859 451.73318646 -22.26171875 454.4140625 C-22.26810867 455.24649475 -22.2744986 456.078927 -22.28108215 456.93658447 C-22.37023659 460.45204987 -22.4475477 462.74662533 -24.1706543 465.86254883 C-26.27119906 467.79351419 -27.45052292 467.84401036 -30.2734375 467.7734375 C-31.046875 467.77214844 -31.8203125 467.77085937 -32.6171875 467.76953125 C-35.26542944 467.23700434 -36.13829787 466.45463977 -37.7734375 464.3359375 C-38.74157004 461.43153989 -38.89488584 459.6077551 -38.88696289 456.58911133 C-38.88688736 455.62834183 -38.88681183 454.66757233 -38.88673401 453.6776886 C-38.88157272 452.64323105 -38.87641144 451.6087735 -38.87109375 450.54296875 C-38.86897133 448.95122078 -38.86897133 448.95122078 -38.86680603 447.32731628 C-38.86120356 443.93432815 -38.84865064 440.54140573 -38.8359375 437.1484375 C-38.83092282 434.84961033 -38.82635986 432.55078212 -38.82226562 430.25195312 C-38.81123333 424.61325878 -38.7944928 418.97460284 -38.7734375 413.3359375 C-39.51062012 413.06281738 -40.24780273 412.78969727 -41.00732422 412.50830078 C-43.61390288 411.40355314 -45.70861833 410.18198694 -48.03125 408.578125 C-48.82273438 408.03414063 -49.61421875 407.49015625 -50.4296875 406.9296875 C-51.65171875 406.07890625 -51.65171875 406.07890625 -52.8984375 405.2109375 C-53.68992188 404.66695313 -54.48140625 404.12296875 -55.296875 403.5625 C-59.77229946 400.47301343 -64.19433125 397.316586 -68.58935547 394.11376953 C-69.56468231 393.40334503 -70.54000916 392.69292053 -71.54489136 391.96096802 C-72.28031158 391.42470795 -73.01573181 390.88844788 -73.7734375 390.3359375 C-73.77930374 391.24160461 -73.78516998 392.14727173 -73.79121399 393.0803833 C-73.84911317 401.61467571 -73.92117391 410.14870563 -74.00915241 418.68274307 C-74.05388362 423.07021499 -74.09313357 427.45759346 -74.11987305 431.84521484 C-74.14587875 436.07938429 -74.18626146 440.31319467 -74.23662376 444.54714203 C-74.25331104 446.1626209 -74.26481374 447.7781619 -74.27105141 449.3937149 C-74.28067254 451.65641437 -74.30870619 453.91819138 -74.34106445 456.18066406 C-74.35771904 458.11259613 -74.35771904 458.11259613 -74.37471008 460.08355713 C-74.79474725 463.50975902 -75.33794501 464.93671216 -77.7734375 467.3359375 C-79.9296875 467.83203125 -79.9296875 467.83203125 -82.2734375 467.7734375 C-83.046875 467.77214844 -83.8203125 467.77085937 -84.6171875 467.76953125 C-87.26542944 467.23700434 -88.13829787 466.45463977 -89.7734375 464.3359375 C-91.01994802 460.59640593 -90.85397111 457.16509489 -90.78833008 453.27539062 C-90.76889435 451.57231149 -90.74994027 449.86922681 -90.73139954 448.1661377 C-90.7202392 447.26259048 -90.70907887 446.35904327 -90.69758034 445.42811584 C-90.63645595 439.62578323 -90.6362871 433.82305885 -90.62497425 428.02045441 C-90.61156308 422.92752782 -90.57686213 417.83647295 -90.49584961 412.74414062 C-90.4185874 407.81212577 -90.40058556 402.88296206 -90.4216671 397.95042419 C-90.41922317 396.07817274 -90.39572615 394.20581741 -90.35004616 392.3341217 C-89.81575915 381.35892202 -89.81575915 381.35892202 -94.38285828 371.81298828 C-97.26124917 368.97121316 -100.47143548 366.66699145 -103.7734375 364.3359375 C-105.2528628 362.96939395 -106.71167455 361.57937942 -108.12890625 360.1484375 C-108.76610596 359.5186499 -109.40330566 358.8888623 -110.05981445 358.23999023 C-116.72025574 351.56928501 -123.08403021 344.87362774 -128.7734375 337.3359375 C-129.22058105 336.74393555 -129.66772461 336.15193359 -130.12841797 335.54199219 C-132.50571862 332.38130828 -134.86477508 329.20705496 -137.1953125 326.01171875 C-137.60937851 325.45425461 -138.02344452 324.89679047 -138.45005798 324.32243347 C-139.7734375 322.3359375 -139.7734375 322.3359375 -140.6696167 320.25595093 C-141.79351327 317.81506683 -142.81103917 316.18698106 -144.7734375 314.3359375 C-149.02570672 313.18925788 -153.17659907 313.38421777 -157.5546875 313.51171875 C-158.80092896 313.51270065 -160.04717041 313.51368256 -161.33117676 313.51469421 C-164.63793371 313.52045254 -167.94213501 313.55774115 -171.24835205 313.61450195 C-175.90400097 313.6925194 -180.55936822 313.73832952 -185.21569824 313.75004578 C-187.6922275 313.75770063 -190.16883018 313.79005731 -192.64465332 313.84968567 C-200.98175652 313.89548613 -200.98175652 313.89548613 -205.03320312 311.03198242 C-207.33175108 307.47097442 -207.52931111 305.49324237 -206.7734375 301.3359375 C-204.59768677 298.76300544 -202.83514467 297.4942508 -199.46566772 296.99182129 C-196.56367545 296.87210493 -193.68904745 296.88677408 -190.78515625 296.9453125 C-189.72682083 296.95097229 -188.66848541 296.95663208 -187.57807922 296.96246338 C-184.20523424 296.98481402 -180.8334602 297.03500974 -177.4609375 297.0859375 C-175.17123932 297.10600412 -172.88152446 297.1242546 -170.59179688 297.140625 C-164.98531306 297.18467445 -159.3794518 297.25157396 -153.7734375 297.3359375 C-154.1746582 296.42610107 -154.57587891 295.51626465 -154.98925781 294.57885742 C-157.8516613 288.03316629 -160.60478896 281.54314934 -162.5234375 274.6484375 C-162.71808594 273.99294922 -162.91273438 273.33746094 -163.11328125 272.66210938 C-166.05133153 262.43808878 -167.11606113 252.58855308 -167.0859375 241.9609375 C-167.10205078 240.83171875 -167.11816406 239.7025 -167.13476562 238.5390625 C-167.14072928 228.11459405 -165.6535343 217.96383061 -160.7734375 208.6484375 C-160.2784375 207.67519531 -159.7834375 206.70195312 -159.2734375 205.69921875 C-157.7734375 203.3359375 -157.7734375 203.3359375 -154.7734375 201.3359375 C-151.8984375 200.8984375 -151.8984375 200.8984375 -148.7734375 201.3359375 C-145.8984375 203.4609375 -145.8984375 203.4609375 -143.7734375 206.3359375 C-143.27918401 211.12951926 -144.38835214 214.55162333 -146.2109375 218.9609375 C-154.74280952 239.81662465 -149.32269446 263.66201385 -141.234375 283.8828125 C-139.57564379 287.80344992 -137.73643154 291.56094896 -135.7734375 295.3359375 C-135.7734375 295.9959375 -135.7734375 296.6559375 -135.7734375 297.3359375 C-131.8134375 297.3359375 -127.8534375 297.3359375 -123.7734375 297.3359375 C-123.49741699 296.46098633 -123.22139648 295.58603516 -122.93701172 294.68457031 C-121.85482228 291.57015354 -120.60560526 288.71570119 -119.15625 285.7578125 C-118.37773682 284.15776367 -118.37773682 284.15776367 -117.58349609 282.52539062 C-117.02742676 281.39037109 -116.47135742 280.25535156 -115.8984375 279.0859375 C-114.72455131 276.67542578 -113.55193087 274.26438224 -112.3828125 271.8515625 C-112.08446503 271.23587402 -111.78611755 270.62018555 -111.47872925 269.98583984 C-109.38257476 265.64208666 -107.34912126 261.27270391 -105.3515625 256.8828125 C-104.54307861 255.10825684 -104.54307861 255.10825684 -103.71826172 253.29785156 C-102.68821748 251.02630765 -101.66361348 248.75228733 -100.64501953 246.47558594 C-100.17950684 245.44981445 -99.71399414 244.42404297 -99.234375 243.3671875 C-98.62795166 242.01463867 -98.62795166 242.01463867 -98.00927734 240.63476562 C-96.11751445 237.11583252 -94.74353364 235.63118415 -90.8984375 234.4609375 C-86.90414008 234.3011656 -85.76289232 234.65309343 -82.7734375 237.3359375 C-78.56922414 244.52019356 -75.56445399 252.40913117 -72.3984375 260.0859375 C-71.27388896 262.79815096 -70.14548954 265.50874712 -69.015625 268.21875 C-68.70226196 268.97058563 -68.38889893 269.72242126 -68.06604004 270.49703979 C-65.03417229 277.75050828 -61.94055397 284.97718876 -58.84375 292.203125 C-58.05710884 294.04071484 -57.27046769 295.87830468 -56.48383141 297.71589661 C-54.63808622 302.02731623 -52.79199664 306.33856672 -50.93780518 310.6463623 C-49.43606783 314.13744082 -47.94019229 317.63098072 -46.4453125 321.125 C-45.98859161 322.18210175 -45.53187073 323.23920349 -45.06130981 324.32833862 C-44.642435 325.31005035 -44.22356018 326.29176208 -43.79199219 327.30322266 C-43.42483093 328.15792145 -43.05766968 329.01262024 -42.67938232 329.89321899 C-41.76301556 332.36403841 -41.21714035 334.74206875 -40.7734375 337.3359375 C-40.1134375 337.3359375 -39.4534375 337.3359375 -38.7734375 337.3359375 C-38.55284668 336.1910083 -38.33225586 335.0460791 -38.10498047 333.86645508 C-36.43369175 326.37317953 -33.88211568 319.12691166 -31.46875 311.84765625 C-30.94306446 310.25585752 -30.41742022 308.66404516 -29.89181519 307.07221985 C-28.7940347 303.75201755 -27.69229759 300.43315632 -26.58837891 297.11499023 C-25.17615086 292.86738629 -23.77929532 288.61489286 -22.38597298 284.36105633 C-21.30796745 281.07867319 -20.21920217 277.7999337 -19.12743759 274.52210426 C-18.60759384 272.9553525 -18.09171384 271.38727965 -17.57992935 269.81787682 C-16.86423471 267.62683318 -16.13351591 265.44136059 -15.39892578 263.2565918 C-14.98748322 262.01354782 -14.57604065 260.77050385 -14.15213013 259.48979187 C-12.741254 256.26231552 -11.49943314 254.53084287 -8.7734375 252.3359375 C-5.26825449 251.21726207 -3.58441164 250.95928351 -0.22241211 252.52075195 C2.63535202 254.63893322 3.3028332 255.99442227 4.47265625 259.31640625 C4.83238525 260.30874268 5.19211426 261.3010791 5.56274414 262.32348633 C6.10789673 263.90746216 6.10789673 263.90746216 6.6640625 265.5234375 C7.44249444 267.69799325 8.22114097 269.87247219 9 272.046875 C9.37608398 273.11518555 9.75216797 274.18349609 10.13964844 275.28417969 C11.8517042 280.09116465 13.69607997 284.8467718 15.55053711 289.6003418 C16.59905755 292.35510807 17.2265625 294.35496885 17.2265625 297.3359375 C17.8971167 297.30975342 18.5676709 297.28356934 19.25854492 297.2565918 C22.31014378 297.15236512 25.36136792 297.08753127 28.4140625 297.0234375 C29.46916016 296.98154297 30.52425781 296.93964844 31.61132812 296.89648438 C39.4539938 296.77278302 39.4539938 296.77278302 43.42578125 299.66796875 C45.2265625 302.3359375 45.2265625 302.3359375 45.8515625 305.3359375 C45.00435698 309.40252398 43.43250607 310.73986702 40.2265625 313.3359375 C36.89257812 313.96704102 36.89257812 313.96704102 33.1328125 313.96484375 C32.46366821 313.96725571 31.79452393 313.96966766 31.10510254 313.97215271 C29.69647265 313.97117729 28.28780299 313.95785598 26.87939453 313.93286133 C24.73206443 313.89852548 22.58885001 313.91221676 20.44140625 313.93164062 C19.06769095 313.92474161 17.69398619 313.91506869 16.3203125 313.90234375 C15.07958984 313.89146729 13.83886719 313.88059082 12.56054688 313.86938477 C8.59051282 313.23416769 6.99397073 312.22084601 4.2265625 309.3359375 C2.92456055 306.86230469 2.92456055 306.86230469 1.98828125 304.1328125 C1.64345703 303.153125 1.29863281 302.1734375 0.94335938 301.1640625 C0.60369141 300.14828125 0.26402344 299.1325 -0.0859375 298.0859375 C-0.62444336 296.5390625 -0.62444336 296.5390625 -1.17382812 294.9609375 C-2.05476501 292.42383927 -2.92062974 289.88260011 -3.7734375 287.3359375 C-6.40896104 289.97146104 -7.11046221 292.89949432 -8.21606445 296.3684082 C-8.45216431 297.09218658 -8.68826416 297.81596497 -8.93151855 298.56167603 C-9.44419924 300.13505024 -9.95424057 301.70928635 -10.46196938 303.28426552 C-11.26732074 305.77907252 -12.08162227 308.2707842 -12.89872742 310.76176453 C-15.2211356 317.84513441 -17.53214692 324.93213628 -19.82495117 332.02514648 C-21.22785711 336.36298326 -22.64546875 340.69578092 -24.07237816 345.02577782 C-24.61259891 346.67491197 -25.14720885 348.32589533 -25.67601967 349.97872353 C-26.41775406 352.29568263 -27.17803633 354.60578309 -27.94262695 356.9152832 C-28.26160194 357.93556358 -28.26160194 357.93556358 -28.58702087 358.97645569 C-30.1175464 363.51114903 -32.06590693 366.31357019 -35.7734375 369.3359375 C-39.3359375 369.9609375 -39.3359375 369.9609375 -42.7734375 369.3359375 C-46.76919021 365.30782044 -48.69334135 360.4551482 -50.86328125 355.3125 C-51.24420929 354.42680328 -51.62513733 353.54110657 -52.01760864 352.62857056 C-53.25640816 349.74258333 -54.48385971 346.85192574 -55.7109375 343.9609375 C-56.56707367 341.95907318 -57.42376721 339.95744715 -58.28100586 337.95605469 C-60.79083172 332.08789831 -63.28523259 326.21329002 -65.7734375 320.3359375 C-66.11491821 319.52950806 -66.45639893 318.72307861 -66.80822754 317.89221191 C-71.84197041 305.99653819 -76.81200186 294.07474645 -81.75390625 282.140625 C-82.2223999 281.01108398 -82.69089355 279.88154297 -83.17358398 278.71777344 C-84.04930935 276.60488208 -84.92266317 274.49100564 -85.79321289 272.37597656 C-86.17340576 271.4578418 -86.55359863 270.53970703 -86.9453125 269.59375 C-87.2762793 268.7908252 -87.60724609 267.98790039 -87.94824219 267.16064453 C-88.63454877 265.35718699 -88.63454877 265.35718699 -89.7734375 264.3359375 C-90.25699707 265.33334961 -90.74055664 266.33076172 -91.23876953 267.35839844 C-93.06078814 271.11607958 -94.8837752 274.87329024 -96.70703125 278.63037109 C-97.49081753 280.24580601 -98.27435318 281.86136256 -99.05761719 283.47705078 C-101.28580572 288.0730458 -103.52093078 292.66556039 -105.7623291 297.25512695 C-106.70442263 299.19390834 -107.63463553 301.13790002 -108.56152344 303.08398438 C-109.34317871 304.70143555 -109.34317871 304.70143555 -110.140625 306.3515625 C-110.5826123 307.27743164 -111.02459961 308.20330078 -111.47998047 309.15722656 C-112.7734375 311.3359375 -112.7734375 311.3359375 -115.7734375 313.3359375 C-118.03515625 313.53125 -118.03515625 313.53125 -120.4609375 313.4609375 C-121.26917969 313.44289063 -122.07742187 313.42484375 -122.91015625 313.40625 C-123.83248047 313.37144531 -123.83248047 313.37144531 -124.7734375 313.3359375 C-110.63232903 334.05282102 -93.6228663 352.93166248 -73.7734375 368.3359375 C-72.65895232 369.24824927 -71.54713769 370.16382964 -70.4375 371.08203125 C-60.64232403 379.14630072 -50.38137053 386.3825414 -39.7734375 393.3359375 C-38.97228516 393.86300293 -38.17113281 394.39006836 -37.34570312 394.93310547 C5.04188296 422.58717519 64.59575003 453.57769979 116.8203125 445.80078125 C126.20149148 443.63316035 133.85050677 440.59441713 139.2265625 432.3359375 C145.78371007 421.22124777 149.69366362 409.96116214 152.2265625 397.3359375 C152.47212891 396.14291016 152.47212891 396.14291016 152.72265625 394.92578125 C158.36579231 365.87062618 156.69010408 333.43961 152.2265625 304.3359375 C152.04963867 303.1799707 151.87271484 302.02400391 151.69042969 300.83300781 C146.77340999 269.67489856 139.15423536 238.77613668 125.2265625 210.3359375 C124.8965625 209.66208008 124.5665625 208.98822266 124.2265625 208.29394531 C111.99290552 183.67132126 94.83275936 170.27020285 68.9765625 161.5234375 C18.48691801 145.34325036 -43.7534068 143.17511534 -92.12011719 167.40795898 C-103.25178774 173.17446723 -113.63548642 180.16861538 -123.3984375 188.0234375 C-125.82977309 189.86163408 -126.86209495 190.35505969 -129.9609375 191.0234375 C-133.87129124 190.06757325 -135.39635151 188.55199502 -137.7734375 185.3359375 C-138.45685942 181.6910206 -138.27899132 180.08672265 -136.203125 177.00390625 C-133.20938742 173.71657062 -129.93565521 171.23474494 -126.3359375 168.6484375 C-125.68044922 168.16310547 -125.02496094 167.67777344 -124.34960938 167.17773438 C-120.94322521 164.70067468 -117.81572467 162.66778934 -113.7734375 161.3359375 C-113.78503906 160.28535156 -113.79664062 159.23476562 -113.80859375 158.15234375 C-113.81798426 156.7343768 -113.82708309 155.3164079 -113.8359375 153.8984375 C-113.84431641 153.21072266 -113.85269531 152.52300781 -113.86132812 151.81445312 C-113.87896442 148.02265077 -113.7077042 144.33054492 -113.26733398 140.56225586 C-113.17540268 139.76645615 -113.08347137 138.97065643 -112.98875427 138.15074158 C-112.91769974 137.55185623 -112.8466452 136.95297089 -112.7734375 136.3359375 C-113.6433432 136.34259933 -113.6433432 136.34259933 -114.53082275 136.34939575 C-120.56528256 136.39363319 -126.59969632 136.42380566 -132.63427734 136.44580078 C-134.88657502 136.45586003 -137.13885964 136.46950896 -139.39111328 136.48681641 C-142.62796248 136.51106781 -145.86463905 136.5224214 -149.1015625 136.53125 C-150.10898499 136.54157257 -151.11640747 136.55189514 -152.15435791 136.56253052 C-153.56536774 136.56275711 -153.56536774 136.56275711 -155.00488281 136.56298828 C-155.83095032 136.5674295 -156.65701782 136.57187073 -157.50811768 136.57644653 C-160.02937054 136.30876509 -161.61946576 135.65353091 -163.7734375 134.3359375 C-165.87023153 131.64005947 -165.76854571 130.2429935 -165.5859375 126.7734375 C-164.7633948 123.29344916 -164.53351248 122.38344014 -161.7734375 120.3359375 C-159.43855286 119.93721008 -159.43855286 119.93721008 -156.65942383 119.90356445 C-155.61857132 119.88377029 -154.57771881 119.86397614 -153.50532532 119.84358215 C-152.38337265 119.83719223 -151.26141998 119.83080231 -150.10546875 119.82421875 C-148.95551926 119.80626755 -147.80556976 119.78831635 -146.62077332 119.76982117 C-142.94253218 119.71557489 -139.26442186 119.68177579 -135.5859375 119.6484375 C-133.09438278 119.61527716 -130.60284535 119.58078872 -128.11132812 119.54492188 C-121.99881522 119.45984015 -115.88628568 119.39155094 -109.7734375 119.3359375 C-109.35191406 118.20414062 -108.93039063 117.07234375 -108.49609375 115.90625 C-107.94276619 114.42445756 -107.38937761 112.94268791 -106.8359375 111.4609375 C-106.55814453 110.71457031 -106.28035156 109.96820313 -105.99414062 109.19921875 C-103.88671875 103.5625 -103.88671875 103.5625 -102.7734375 101.3359375 C-103.48896286 101.34704056 -104.20448822 101.35814362 -104.94169617 101.36958313 C-111.69472768 101.46989275 -118.44755042 101.54595633 -125.20115948 101.59499836 C-128.67308599 101.62105977 -132.14439542 101.65639137 -135.6159668 101.71313477 C-139.60992249 101.77800584 -143.60323308 101.80214612 -147.59765625 101.82421875 C-148.84052902 101.85002518 -150.08340179 101.8758316 -151.36393738 101.90242004 C-160.96855172 101.90554474 -160.96855172 101.90554474 -164.06567383 98.99682617 C-166.14983628 95.74946568 -166.41856598 94.12606729 -165.7734375 90.3359375 C-163.99359345 87.2000218 -163.25035543 86.49491014 -159.7734375 85.3359375 C-157.66358309 85.27332125 -155.55169884 85.27290911 -153.44116211 85.30517578 C-151.4778318 85.32851486 -151.4778318 85.32851486 -149.47483826 85.35232544 C-148.42491101 85.3666329 -148.42491101 85.3666329 -147.35377312 85.3812294 C-142.84873344 85.43298294 -138.34330868 85.42701166 -133.83801937 85.43258858 C-129.88733834 85.44078582 -125.93863419 85.46837814 -121.98852539 85.53808594 C-118.15865602 85.60453619 -114.33192121 85.61646368 -110.50158882 85.59283066 C-109.04997438 85.59343704 -107.59822348 85.61327405 -106.14716911 85.65359879 C-100.03157619 85.81478846 -94.78241762 85.90941556 -89.76345825 81.97845459 C-87.23840781 79.20485391 -85.01702205 76.33838838 -82.7734375 73.3359375 C-79.63105076 70.0727172 -76.36008893 67.0167201 -72.9609375 64.0234375 C-72.17074219 63.32605469 -71.38054687 62.62867188 -70.56640625 61.91015625 C-69.67888672 61.13091797 -69.67888672 61.13091797 -68.7734375 60.3359375 C-69.02512695 59.77720947 -69.27681641 59.21848145 -69.53613281 58.64282227 C-70.69879654 56.06146368 -71.86111862 53.47995138 -73.0234375 50.8984375 C-73.41917969 50.01994141 -73.81492188 49.14144531 -74.22265625 48.23632812 C-75.01748645 46.47076267 -75.81037205 44.70432051 -76.60131836 42.93701172 C-77.37261425 41.22541279 -78.15442456 39.51850674 -78.94750977 37.81689453 C-79.30901123 37.0329834 -79.6705127 36.24907227 -80.04296875 35.44140625 C-80.36628174 34.75071045 -80.68959473 34.06001465 -81.02270508 33.34838867 C-82.34566792 29.8019878 -82.21239565 27.0984359 -81.7734375 23.3359375 C-79.73310632 18.95845382 -77.60479846 17.3249971 -73.29296875 15.2578125 C-72.21080078 14.73703125 -71.12863281 14.21625 -70.01367188 13.6796875 C-68.88251953 13.15375 -67.75136719 12.6278125 -66.5859375 12.0859375 C-64.91821289 11.27382813 -64.91821289 11.27382813 -63.21679688 10.4453125 C-57.34814678 7.66560849 -52.30899455 5.47225271 -45.7734375 5.3359375 C-39.46955127 7.91480005 -36.48856969 13.4880816 -33.7578125 19.44140625 C-33.22929687 20.58931641 -32.70078125 21.73722656 -32.15625 22.91992188 C-31.61742187 24.10908203 -31.07859375 25.29824219 -30.5234375 26.5234375 C-29.96409694 27.7365843 -29.40420599 28.94947749 -28.84375 30.16210938 C-24.7734375 39.05965209 -24.7734375 39.05965209 -24.7734375 41.3359375 C-21.1434375 41.0059375 -17.5134375 40.6759375 -13.7734375 40.3359375 C-13.79700317 38.92900635 -13.79700317 38.92900635 -13.82104492 37.49365234 C-13.87235715 33.99359545 -13.90987622 30.4939418 -13.93823242 26.99365234 C-13.95326293 25.48252023 -13.97369314 23.97143132 -13.99975586 22.46044922 C-14.03639439 20.28081563 -14.05322088 18.10176175 -14.06640625 15.921875 C-14.08997192 13.95806885 -14.08997192 13.95806885 -14.11401367 11.95458984 C-13.74435245 8.02690619 -12.86645511 5.65990784 -10.7734375 2.3359375 C-7.09483976 -0.116461 -4.25951837 0.01290852 0 0 Z M63.2265625 139.3359375 C62.5665625 140.3259375 61.9065625 141.3159375 61.2265625 142.3359375 C62.19142578 142.63661133 62.19142578 142.63661133 63.17578125 142.94335938 C76.47404237 147.12633595 88.97519261 151.67886784 101.2265625 158.3359375 C103.22291127 159.34320687 105.22171125 160.34569942 107.2265625 161.3359375 C107.25374566 158.48170558 107.27348955 155.62773735 107.2890625 152.7734375 C107.30163086 151.57364258 107.30163086 151.57364258 107.31445312 150.34960938 C107.31767578 149.56005859 107.32089844 148.77050781 107.32421875 147.95703125 C107.32945557 147.2395874 107.33469238 146.52214355 107.34008789 145.78295898 C107.1922263 142.59582616 106.71127072 139.48737952 106.2265625 136.3359375 C101.06708904 136.26153302 95.90793099 136.20721559 90.74804688 136.17114258 C88.99441077 136.15609755 87.24081203 136.13565646 85.48730469 136.10961914 C82.96019241 136.07304629 80.43357954 136.0561683 77.90625 136.04296875 C77.12788788 136.02748489 76.34952576 136.01200104 75.5475769 135.99604797 C70.71072371 135.99456753 67.4050805 136.63518806 63.2265625 139.3359375 Z " fill="#8BE23D" transform="translate(212.7734375,-0.3359375)"/>
</svg>
