<?xml version="1.0" encoding="UTF-8"?>
<svg version="1.1" xmlns="http://www.w3.org/2000/svg" width="512" height="512">
<path d="M0 0 C1.39623048 1.16900771 2.78219602 2.35041466 4.15625 3.54541016 C8.73247626 7.67310492 8.73247626 7.67310492 14.57226562 8.84985352 C16.85083035 7.5565189 16.85083035 7.5565189 19.07226562 5.53735352 C46.7639557 -15.65829666 86.0428392 -21.45413905 119.89453125 -17.27416992 C141.5944362 -14.24314746 165.09811906 -7.65872948 182.32226562 6.53735352 C183.93101562 7.68204102 183.93101562 7.68204102 185.57226562 8.84985352 C190.38821368 7.77597144 193.72501059 4.39922949 197.38476562 1.28735352 C219.00342566 -16.42849236 244.83872274 -24.55946225 272.77832031 -21.94360352 C298.027228 -18.92582851 320.78263906 -6.21788934 336.57226562 13.84985352 C352.961364 36.12116079 358.60857945 61.16799583 355.24267578 88.52905273 C352.40014511 105.62232185 344.70657909 121.76371465 332.97851562 134.49829102 C331.05737897 137.71085842 331.75205026 139.24880102 332.57226562 142.84985352 C332.68857056 145.50863849 332.75725127 148.12967641 332.75976562 150.78735352 C332.77201172 151.46475586 332.78425781 152.1421582 332.796875 152.84008789 C332.81218099 158.16147002 332.49646204 163.64059097 328.88476562 167.78735352 C325.56657395 169.31192807 323.17813543 169.30058724 319.57226562 168.84985352 C317.35351562 167.42016602 317.35351562 167.42016602 315.57226562 164.84985352 C315.1739566 161.64678511 315.39471203 158.50311206 315.57226562 155.28735352 C315.89779953 142.71093105 313.22798082 134.21651041 304.57226562 124.84985352 C296.53450047 116.39544394 285.1253847 110.14924961 273.33789062 109.51391602 C261.58043629 109.27892187 251.73283062 110.46948609 242.29101562 118.15063477 C236.31976161 124.05403362 233.60438181 131.27367093 233.19726562 139.59985352 C233.47626831 151.09127651 239.54701383 161.2162309 247.63476562 169.03735352 C253.0129282 173.58880529 259.04576991 176.30945057 265.57226562 178.84985352 C266.25933594 179.11797852 266.94640625 179.38610352 267.65429688 179.66235352 C276.55984757 182.45625177 286.82392828 181.54969925 295.57226562 178.84985352 C301.66647675 178.23010323 301.66647675 178.23010323 304.94726562 180.47485352 C306.95732605 183.41263414 307.49960541 185.28950311 307.57226562 188.84985352 C306.69726562 191.53735352 306.69726562 191.53735352 304.57226562 193.84985352 C301.65397928 195.202367 298.69113939 196.08308721 295.57226562 196.84985352 C294.83492188 197.03418945 294.09757812 197.21852539 293.33789062 197.40844727 C275.23534759 200.29769495 256.72665446 196.55797719 241.74804688 185.82641602 C235.3163948 180.77498709 235.3163948 180.77498709 232.83789062 177.69360352 C229.45811275 174.94316359 226.06486325 174.92702011 221.82226562 174.47485352 C211.05619949 173.07320031 201.21003721 169.89821006 191.57226562 164.84985352 C191.49105469 165.65293945 191.40984375 166.45602539 191.32617188 167.28344727 C190.35838878 171.86161289 188.54044242 175.71620933 186.50976562 179.91235352 C186.10854492 180.75290283 185.70732422 181.59345215 185.29394531 182.45947266 C182.34087842 188.53695867 178.9942913 194.16607024 175.36132812 199.86157227 C169.08618903 210.34297273 166.17329189 221.27085465 166.19726562 233.41235352 C166.19887695 234.27932861 166.20048828 235.14630371 166.20214844 236.03955078 C166.35891062 244.41787485 168.09036263 251.88743434 170.57226562 259.84985352 C170.91902344 260.97907227 171.26578125 262.10829102 171.62304688 263.27172852 C172.28285866 265.40146849 172.94922111 267.52919333 173.62304688 269.65454102 C175.20792641 274.98964991 176.39746687 280.41195928 177.57226562 285.84985352 C178.46945312 285.26977539 179.36664063 284.68969727 180.29101562 284.09204102 C204.03474025 269.08482244 230.89142783 263.99942233 258.75976562 268.97485352 C284.94009422 275.41509453 309.3379644 290.42710839 323.57226562 313.84985352 C338.62437195 339.03331487 343.60382684 367.17686325 336.57226562 395.84985352 C332.69247006 410.91413725 325.83564895 424.19582093 315.57226562 435.84985352 C314.89679688 436.6684082 314.22132813 437.48696289 313.52539062 438.33032227 C297.06106084 457.7089586 272.7345132 469.2543688 247.57226562 471.84985352 C219.67355062 473.8238192 191.94548317 466.36387242 170.57226562 447.84985352 C163.5443056 441.40499934 156.98175665 434.73225472 151.57226562 426.84985352 C150.20892545 430.53522969 149.24786244 434.19681723 148.45898438 438.03735352 C148.26240234 438.98352539 148.06582031 439.92969727 147.86328125 440.90454102 C147.4614031 442.86581043 147.07073948 444.82941169 146.69140625 446.79516602 C145.40956611 452.84578123 144.18370602 456.63349439 139.57226562 460.84985352 C137.1413645 462.28061247 134.94783376 463.44010509 132.38476562 464.53735352 C131.72347656 464.83206543 131.0621875 465.12677734 130.38085938 465.43041992 C111.55396689 473.64887129 90.79668812 474.48613885 71.54833984 467.07006836 C64.72316631 464.19693119 58.76027209 461.20905935 54.57226562 454.84985352 C53.66555602 452.23716841 53.00021517 449.91754688 52.45092773 447.23876953 C52.28393435 446.49616064 52.11694096 445.75355175 51.94488716 444.98843956 C51.3964728 442.53022897 50.87306312 440.06739551 50.34960938 437.60375977 C49.96460485 435.85461052 49.57805049 434.10580178 49.19004822 432.35731506 C48.15652665 427.67958372 47.14441216 422.99746156 46.1364975 418.31415558 C45.09173348 413.47684235 44.02760151 408.64379603 42.96533203 403.81030273 C41.27307306 396.09904595 39.59203989 388.38543187 37.92041016 380.66967773 C36.01074505 371.85587106 34.08134007 363.04659773 32.13729286 354.24031639 C29.95566335 344.35489113 27.77851317 334.46843184 25.62695312 324.57641602 C25.33146828 323.23076317 25.33146828 323.23076317 25.03001404 321.85792542 C20.02067114 298.72066911 22.52165689 277.35219087 29.90893555 255.14868164 C35.23594378 239.09759267 34.1125175 220.13208725 26.73632812 204.94360352 C23.92466422 199.44082452 20.77952785 194.15449243 17.50976562 188.91235352 C14.84928022 184.57349026 12.74881849 180.06084807 10.69726562 175.41235352 C10.386521 174.71311768 10.07577637 174.01388184 9.75561523 173.29345703 C8.47405144 170.32030154 7.57226562 168.12148904 7.57226562 164.84985352 C6.940625 165.16438477 6.30898437 165.47891602 5.65820312 165.80297852 C-3.98046762 170.41398527 -13.65120259 173.52730344 -24.30273438 174.59985352 C-30.18234013 175.40741382 -32.4824126 177.23244285 -36.29492188 181.62719727 C-46.69237533 192.46263868 -63.31508935 197.79963406 -78.00024414 198.14233398 C-91.66499424 198.25502729 -103.06149575 195.96567498 -114.42773438 187.84985352 C-115.06195313 187.4102832 -115.69617188 186.97071289 -116.34960938 186.51782227 C-125.21657645 179.71065949 -130.69977556 168.73489341 -132.42773438 157.84985352 C-132.4707995 154.28250833 -132.31514735 150.72667792 -132.17773438 147.16235352 C-131.82451727 138.65682933 -131.82451727 138.65682933 -135.92773438 131.41235352 C-136.65605469 130.68790039 -137.384375 129.96344727 -138.13476562 129.21704102 C-145.61915011 121.49040218 -150.21086688 109.91474953 -153.42773438 99.84985352 C-153.74742187 98.86758789 -154.06710938 97.88532227 -154.39648438 96.87329102 C-160.69652341 73.36481203 -156.98710243 47.08581377 -145.42773438 25.84985352 C-135.79809056 9.74510438 -135.79809056 9.74510438 -130.42773438 8.31860352 C-126.94348407 8.37304493 -124.94009581 8.52962762 -121.92773438 10.41235352 C-119.85231941 13.78490283 -120.06165842 15.9299616 -120.42773438 19.84985352 C-122.15039062 22.84985352 -122.15039062 22.84985352 -124.49023438 25.84985352 C-137.96668502 44.06040781 -141.95540136 64.78017763 -139.13476562 87.17602539 C-137.04557572 99.04846481 -131.18050234 110.0020669 -124.42773438 119.84985352 C-121.04718369 118.72300329 -120.31979618 117.79600726 -118.11523438 115.09985352 C-115.12877523 111.56693589 -112.0695473 108.69224409 -108.42773438 105.84985352 C-109.27335937 104.90110352 -110.11898437 103.95235352 -110.99023438 102.97485352 C-121.76420895 90.29059976 -127.60063965 77.73526347 -126.42773438 60.84985352 C-123.79286668 42.98593401 -113.98777598 29.21853643 -99.99023438 18.41235352 C-84.7172596 7.93260906 -66.11519389 5.34996057 -48.00097656 8.23657227 C-32.82227008 11.59617972 -21.52342232 20.3543107 -10.11865234 30.3684082 C-0.77365816 38.5557349 8.84117241 44.44388992 19.90771484 50.03320312 C31.15230575 55.83162531 40.1996765 63.04427228 44.1796875 75.38012695 C45.84095341 81.11687443 45.99611015 86.55021409 45.97851562 92.49047852 C45.98935181 93.5751239 46.00018799 94.65976929 46.01135254 95.77728271 C46.04535798 99.21820079 46.06114515 102.65879025 46.07226562 106.09985352 C45.75735059 131.25550702 45.75735059 131.25550702 53.57226562 154.84985352 C54.29542969 156.23237305 54.29542969 156.23237305 55.03320312 157.64282227 C58.05608085 163.12799711 61.34684537 167.92522204 65.44726562 172.66235352 C82.57917583 192.6842972 89.07666552 216.22310822 89.00585938 242.26000977 C89.0104384 243.76737193 89.01574897 245.27473203 89.02174377 246.78208923 C89.03057613 249.90559508 89.02835961 253.02884377 89.01831055 256.15234375 C89.00672493 260.14005167 89.02722694 264.12688653 89.05622768 268.11448002 C89.07460732 271.21243324 89.07429562 274.31017663 89.06859016 277.4081707 C89.06843774 278.87888264 89.07441633 280.34960951 89.08688164 281.82026863 C89.19025671 295.98608373 89.19025671 295.98608373 84.57226562 301.84985352 C80.26435928 305.93684159 76.65515462 307.64497919 70.75976562 308.22485352 C66.05776287 308.07431859 62.37849942 306.58780963 58.57226562 303.84985352 C56.93060623 302.08072409 55.44355081 300.23607332 53.93945312 298.34985352 C52.56208897 296.64419064 52.56208897 296.64419064 50.00976562 295.66235352 C46.4848508 295.93350081 45.03555329 297.38656585 42.57226562 299.84985352 C37.83258152 307.85449347 41.42575227 318.21466301 43.32226562 326.66235352 C43.57492188 327.87600586 43.82757813 329.0896582 44.08789062 330.34008789 C44.34570312 331.50475586 44.60351562 332.66942383 44.86914062 333.86938477 C45.09956055 334.92230713 45.32998047 335.97522949 45.56738281 337.06005859 C46.71757621 340.25327044 47.96366484 341.71180488 50.57226562 343.84985352 C53.04294624 345.01135739 55.38981642 346.00033098 57.94726562 346.91235352 C58.65044922 347.16911865 59.35363281 347.42588379 60.078125 347.69042969 C82.28433035 355.5439046 105.71969682 355.62536484 128.57226562 350.84985352 C130.11333984 350.53081055 130.11333984 350.53081055 131.68554688 350.20532227 C133.65367133 349.77986457 135.61460983 349.32114102 137.57226562 348.84985352 C137.68570312 347.68583008 137.79914063 346.52180664 137.91601562 345.32250977 C138.44875003 341.11335304 139.56371608 337.24591965 141.07226562 333.28735352 C141.32927246 332.60697021 141.5862793 331.92658691 141.85107422 331.22558594 C145.26067245 322.6122299 149.95927916 314.25259778 155.84179688 307.08422852 C157.82236701 304.98297422 157.82236701 304.98297422 157.63476562 302.28735352 C156.2029843 299.0026787 154.64477692 297.66542837 151.57226562 295.84985352 C148.48412473 296.04592595 147.02569418 296.40441489 144.79882812 298.59204102 C144.2703125 299.29586914 143.74179687 299.99969727 143.19726562 300.72485352 C138.986043 305.80014989 135.2330204 307.5542141 128.63476562 308.28735352 C123.33938996 308.05131933 118.83440693 305.99440827 114.99414062 302.35375977 C109.46232569 295.97945577 110.31971372 289.13326841 110.27709961 281.17138672 C110.26555662 279.66705944 110.24506798 278.16277386 110.21557617 276.65869141 C110.17293219 274.48384813 110.15673865 272.31021899 110.14648438 270.13500977 C110.1246106 268.18413452 110.1246106 268.18413452 110.10229492 266.19384766 C110.57226562 262.84985352 110.57226562 262.84985352 112.47387695 260.42993164 C114.73562181 258.72684698 115.7759969 258.28189205 118.57226562 258.28735352 C119.56226563 258.25448242 119.56226563 258.25448242 120.57226562 258.22094727 C123.71553027 259.20935666 124.77062911 261.15613563 126.57226562 263.84985352 C127.11816406 266.89599609 127.11816406 266.89599609 127.18164062 270.24438477 C127.21386719 271.44643555 127.24609375 272.64848633 127.27929688 273.88696289 C127.29347656 275.1328418 127.30765625 276.3787207 127.32226562 277.66235352 C127.35191406 278.92756836 127.3815625 280.1927832 127.41210938 281.49633789 C127.48270339 284.61424027 127.53545473 287.73139926 127.57226562 290.84985352 C130.85729089 289.75484509 131.36245868 289.11555183 133.38476562 286.47485352 C136.90650176 282.21031944 141.04825703 279.68682451 146.57226562 278.84985352 C150.77071992 278.69718245 154.47915308 278.96523571 158.57226562 279.84985352 C158.25773437 278.81989258 157.94320313 277.78993164 157.61914062 276.72875977 C156.4618306 272.90314414 155.34792125 269.06616074 154.25244141 265.22241211 C153.82407073 263.72818875 153.38854543 262.23598005 152.94287109 260.74682617 C146.35461307 238.50942194 148.02115362 214.61862257 158.57226562 193.84985352 C160.78159967 189.99126194 163.15703026 186.23935501 165.52758789 182.47851562 C174.90135815 167.48466291 180.71751513 150.33482609 180.68579102 132.53759766 C180.68601006 131.49730911 180.68601006 131.49730911 180.68623352 130.43600464 C180.68554303 128.16897328 180.67779154 125.90202657 180.66992188 123.63500977 C180.66805462 122.05317734 180.66663217 120.47134432 180.66563416 118.88951111 C180.66183317 114.74509051 180.65202377 110.60070547 180.64093018 106.45629883 C180.63066382 102.21965007 180.62612538 97.98299552 180.62109375 93.74633789 C180.61039914 85.44749352 180.59335205 77.14867796 180.57226562 68.84985352 C175.15695591 72.66518536 172.37568974 76.4268197 170.57226562 82.84985352 C170.06290573 86.69787006 170.03731643 90.48018277 170.06835938 94.35766602 C170.05893814 95.44135468 170.04951691 96.52504333 170.03981018 97.64157104 C170.01131473 101.0861929 170.00807419 104.53012386 170.00976562 107.97485352 C169.97881837 137.11478766 166.23520193 159.99331127 147.42285156 182.99633789 C135.69535223 197.34165497 129.03261356 213.33787 127.16210938 231.85375977 C126.53402191 235.0441113 125.85489423 236.56182862 123.57226562 238.84985352 C119.59882401 239.9535873 117.48226791 240.26528934 113.69726562 238.53735352 C111.57226563 236.84985352 111.57226563 236.84985352 110.57226562 234.84985352 C110.15314635 211.37917416 119.06997952 190.90371989 133.57226562 172.84985352 C142.15315464 161.99588132 148.68394786 151.52260953 151.57226562 137.84985352 C151.74411377 137.04177246 151.91596191 136.23369141 152.09301758 135.40112305 C152.76546164 130.41825428 152.7483832 125.48203903 152.78320312 120.45922852 C152.8112751 118.20010673 152.83993959 115.94099224 152.86914062 113.68188477 C152.91032288 110.14266188 152.94723787 106.60357479 152.97363281 103.06420898 C153.00139956 99.63310074 153.04727032 96.20259928 153.09570312 92.77172852 C153.09895599 91.72660095 153.10220886 90.68147339 153.1055603 89.60467529 C153.24277168 81.31443885 154.47070599 73.14697057 159.25976562 66.16235352 C159.69675781 65.49848633 160.13375 64.83461914 160.58398438 64.15063477 C166.74769848 57.01816403 173.86263197 52.8272522 182.19726562 48.59985352 C192.58205067 43.15006168 201.40711338 37.15335976 210.18017578 29.43530273 C228.46853402 13.35973178 245.34396223 6.48223468 270.02490234 7.66967773 C283.56899759 8.62765572 295.47278124 15.022591 305.57226562 23.84985352 C306.17554688 24.3590332 306.77882813 24.86821289 307.40039062 25.39282227 C317.77460093 34.85578437 324.81119354 49.24350417 325.72851562 63.23266602 C326.19762949 76.95424653 322.01014146 89.17027045 312.82226562 99.34985352 C312.04367187 100.16454102 311.26507813 100.97922852 310.46289062 101.81860352 C308.52518849 103.70898279 308.52518849 103.70898279 307.57226562 105.84985352 C308.1265625 106.07672852 308.68085938 106.30360352 309.25195312 106.53735352 C312.24456052 108.23014154 314.30116151 110.38937646 316.69726562 112.84985352 C318.00050781 114.18016602 318.00050781 114.18016602 319.33007812 115.53735352 C320.43996094 116.68204102 320.43996094 116.68204102 321.57226562 117.84985352 C322.23226563 118.50985352 322.89226562 119.16985352 323.57226562 119.84985352 C336.80532615 99.78682627 342.31682331 78.321026 337.59594727 54.32202148 C332.71727508 34.12034132 319.82721704 16.79064831 302.31005859 5.88842773 C284.51181859 -4.74850862 263.89600669 -8.13592953 243.69726562 -3.46264648 C228.91276422 0.31767307 217.42169708 7.1981662 205.69726562 16.78735352 C186.21814207 32.6161082 163.87305242 43.19739108 139.69726562 49.72485352 C138.99827148 49.91587646 138.29927734 50.10689941 137.57910156 50.30371094 C125.65651448 53.32547008 113.61521901 54.18667039 101.37304688 54.1105957 C99.30895137 54.09978377 97.2457117 54.11062202 95.18164062 54.12329102 C75.37006775 54.14810422 75.37006775 54.14810422 70.83300781 50.42114258 C69.04324574 48.1905251 68.70524874 46.70899054 68.57226562 43.84985352 C70.84937406 38.2112993 70.84937406 38.2112993 73.57226562 36.84985352 C76.42449521 36.79910879 79.25270484 36.80761599 82.10351562 36.85766602 C83.88345739 36.87522823 85.66340575 36.89213189 87.44335938 36.90844727 C90.23147301 36.93898998 93.01924653 36.97395425 95.80712891 37.02124023 C111.9031859 37.27968315 127.17523603 35.98710815 142.63476562 31.16235352 C143.44913086 30.91469238 144.26349609 30.66703125 145.10253906 30.41186523 C153.63672043 27.70215519 161.61091549 23.91302962 169.57226562 19.84985352 C169.57226562 19.18985352 169.57226562 18.52985352 169.57226562 17.84985352 C136.62307262 -0.91867414 99.96280285 -6.22053466 63.06713867 3.44311523 C51.21195715 6.76633438 39.6817347 11.79051975 29.57226562 18.84985352 C33.83202438 22.42938901 38.88743548 24.49682091 43.90429688 26.80102539 C49.20612409 29.34413844 49.20612409 29.34413844 51.06835938 31.91625977 C51.85235097 34.9245996 51.49611138 36.89354711 50.57226562 39.84985352 C48.44726563 42.28735352 48.44726563 42.28735352 45.57226562 43.84985352 C39.92505475 43.50780984 35.33836564 41.77637455 30.25976562 39.47485352 C29.48503906 39.12616211 28.7103125 38.7774707 27.91210938 38.41821289 C16.15458463 32.96613488 4.99504256 26.20770123 -4.95117188 17.88500977 C-24.44894564 1.86239126 -45.81720125 -7.13047491 -71.42773438 -5.15014648 C-79.23359736 -4.03782326 -86.8172423 -1.97448368 -94.05273438 1.16235352 C-98.19049398 2.94574905 -101.01583299 3.29047438 -105.42773438 1.84985352 C-108.24746369 -0.51508075 -108.40624269 -1.97821298 -108.86523438 -5.65014648 C-108.33937622 -9.85701173 -107.6553734 -10.52541588 -104.42773438 -13.15014648 C-101.99698054 -14.31702245 -99.69983848 -15.3043118 -97.17773438 -16.21264648 C-96.11872925 -16.59670654 -96.11872925 -16.59670654 -95.03833008 -16.98852539 C-62.50923109 -28.32841544 -26.59336341 -21.81169508 0 0 Z M-98.24023438 38.40454102 C-105.74916136 46.79844868 -111.28291833 57.18345337 -110.78320312 68.74829102 C-108.80599739 80.43770515 -102.64673343 88.73611391 -93.42773438 95.84985352 C-89.92721847 97.01669215 -89.44206803 96.63745592 -86.11523438 95.41235352 C-70.12233684 90.81253212 -53.17870242 93.30002412 -38.55273438 100.66235352 C-26.76242946 107.5414574 -21.21890741 118.00198934 -17.42773438 130.84985352 C-15.56725754 129.98835193 -13.71465048 129.10985018 -11.86523438 128.22485352 C-10.83269531 127.73758789 -9.80015625 127.25032227 -8.73632812 126.74829102 C-7.64449219 126.12180664 -6.55265625 125.49532227 -5.42773438 124.84985352 C-4.82821457 124.51176163 -4.22869476 124.17366974 -3.61100769 123.82533264 C-0.37983997 121.60540741 1.31110564 119.91600734 2.26057434 116.03991699 C2.56726867 112.47226122 2.64718803 108.96597299 2.64257812 105.38500977 C2.66685379 103.42500282 2.66685379 103.42500282 2.69161987 101.42539978 C2.71991082 98.66543011 2.72102842 95.90702309 2.70458984 93.14697266 C2.68709631 89.62294139 2.75154713 86.10579121 2.83839607 82.58298588 C2.90728242 79.20424543 2.89525891 75.82694879 2.89257812 72.44750977 C2.94480026 70.56129662 2.94480026 70.56129662 2.99807739 68.63697815 C2.93201695 65.05105161 2.76001583 62.23751111 1.57226562 58.84985352 C-1.74563261 55.68989355 -5.3423088 53.84972576 -9.42773438 51.84985352 C-11.69264676 50.19974151 -13.69629344 48.39813713 -15.80273438 46.53735352 C-16.89856954 45.58863137 -17.99628078 44.64207259 -19.09570312 43.69750977 C-19.64403809 43.22587402 -20.19237305 42.75423828 -20.75732422 42.26831055 C-44.44215122 22.15593919 -73.52514774 14.42115102 -98.24023438 38.40454102 Z M217.71411133 44.4765625 C212.24038302 49.21511547 206.55526585 53.95901382 199.98118591 57.07991028 C197.33843885 58.63098822 197.33843885 58.63098822 196.90370178 61.43461609 C196.88464279 62.46971817 196.8655838 63.50482025 196.84594727 64.57128906 C196.814048 65.74648605 196.78214874 66.92168304 196.74928284 68.13249207 C196.74371872 69.40433853 196.7381546 70.676185 196.73242188 71.98657227 C196.71577988 73.29511673 196.69913788 74.60366119 196.68199158 75.95185852 C196.65204536 78.72527648 196.64278962 81.49791615 196.64575195 84.27148438 C196.64625843 87.80945833 196.57821185 91.34237514 196.49189091 94.87915325 C196.42254057 98.26919205 196.42583703 101.65833464 196.41992188 105.04907227 C196.3660305 106.94166023 196.3660305 106.94166023 196.31105042 108.8724823 C196.37621836 115.68076545 196.37621836 115.68076545 199.71798706 121.39517212 C204.28357486 125.12521305 211.4335231 130.84985352 217.57226562 130.84985352 C217.86359375 130.01583008 218.15492188 129.18180664 218.45507812 128.32250977 C223.47751957 114.53448655 229.57729374 104.99621867 243.07226562 98.53735352 C251.72517552 94.6285514 259.19174296 93.52317349 268.57226562 93.59985352 C269.99152344 93.58825195 269.99152344 93.58825195 271.43945312 93.57641602 C277.19435352 93.59235757 282.03201254 94.34538824 287.57226562 95.84985352 C290.9825377 96.30521641 292.10147353 96.14531099 295.03710938 94.30297852 C303.55647813 86.71226133 308.693003 78.29077468 309.88476562 66.84985352 C309.57388812 53.84952164 302.40276331 43.29011598 293.38476562 34.53735352 C267.51658401 13.03939371 239.88169195 25.16620369 217.71411133 44.4765625 Z M17.57226562 67.84985352 C17.50221564 76.96111719 17.44917898 86.07228568 17.41682911 95.1837616 C17.40128915 99.41630687 17.38026934 103.64866557 17.34594727 107.88110352 C17.3129309 111.97899156 17.29532535 116.07670216 17.2876339 120.17471313 C17.28216509 121.72452583 17.27149063 123.27433075 17.25507545 124.82406616 C17.0254204 147.44122043 22.72358559 167.18559734 34.77539062 186.36547852 C47.2313056 206.31517491 52.40230402 229.29436641 47.39013672 252.6640625 C46.54974369 256.09099853 45.58378294 259.47002027 44.57226562 262.84985352 C44.11136026 264.4575629 43.651765 266.06564835 43.19335938 267.67407227 C42.02250364 271.74413069 40.80919549 275.79941516 39.57226562 279.84985352 C41.47138892 281.07331881 41.47138892 281.07331881 43.25976562 280.41235352 C49.53782459 278.88525809 54.9391814 279.96461526 60.57226562 282.84985352 C64.20228368 285.30256841 67.13622181 288.19578779 69.57226562 291.84985352 C70.56226563 291.51985352 71.55226562 291.18985352 72.57226562 290.84985352 C72.66586164 282.79895127 72.73647642 274.74828467 72.77951431 266.69696903 C72.80019348 262.9564722 72.82813932 259.21635351 72.87402344 255.47607422 C73.56375425 227.61178053 73.56375425 227.61178053 64.82226562 201.47485352 C64.4786499 200.8196875 64.13503418 200.16452148 63.78100586 199.48950195 C60.00909132 192.48341336 55.31184566 186.27312488 50.34960938 180.07250977 C36.837511 162.80576313 30.45310268 144.25907052 30.43164062 122.36157227 C30.41331494 120.10570278 30.39374485 117.84984311 30.37304688 115.59399414 C30.3441074 112.0655852 30.32226569 108.53781267 30.32177734 105.00927734 C30.3184265 101.58447871 30.28378815 98.16111911 30.24414062 94.73657227 C30.25121033 93.69458176 30.25828003 92.65259125 30.26556396 91.57902527 C30.13782192 83.8150124 28.40742859 76.9316432 22.95281982 71.12626648 C20.5740863 68.80623115 20.5740863 68.80623115 17.57226562 67.84985352 Z M-101.42773438 120.84985352 C-102.3790625 121.5981543 -102.3790625 121.5981543 -103.34960938 122.36157227 C-110.18973551 128.36938217 -115.6772031 138.9474265 -116.66601562 148.04125977 C-116.92549892 156.3310681 -114.8118509 163.23961992 -110.24023438 170.16235352 C-100.8879556 179.09897546 -91.30454047 182.35661439 -78.46826172 182.27392578 C-63.72450738 181.75693699 -51.43024539 174.24361921 -41.42773438 163.84985352 C-34.76733268 155.86016997 -31.73179557 146.98456647 -32.08398438 136.58032227 C-33.12331828 128.32470405 -37.02313857 121.16236905 -43.42773438 115.84985352 C-62.64686832 104.28814646 -84.1809074 106.61191542 -101.42773438 120.84985352 Z M0.57226562 138.84985352 C-0.8740625 139.57301758 -0.8740625 139.57301758 -2.34960938 140.31079102 C-13.42773438 145.84985352 -13.42773438 145.84985352 -15.80273438 146.78735352 C-17.63530886 147.75897635 -17.63530886 147.75897635 -18.25585938 150.01391602 C-18.39507812 150.82602539 -18.53429687 151.63813477 -18.67773438 152.47485352 C-18.82726562 153.29211914 -18.97679687 154.10938477 -19.13085938 154.95141602 C-19.22882813 155.57790039 -19.32679688 156.20438477 -19.42773438 156.84985352 C-11.56544509 156.31378834 -3.95798177 153.20335178 2.57226562 148.84985352 C3.01053764 146.94527423 3.01053764 146.94527423 2.88476562 144.84985352 C2.87896484 143.79797852 2.87896484 143.79797852 2.87304688 142.72485352 C2.72139508 140.60819582 2.72139508 140.60819582 0.57226562 138.84985352 Z M197.57226562 138.84985352 C196.42873647 141.13691183 196.46892123 142.44250113 196.50976562 144.97485352 C196.53039062 146.25360352 196.55101562 147.53235352 196.57226562 148.84985352 C204.07752669 152.89719325 211.23937314 155.97987371 219.57226562 157.84985352 C219.81901683 154.01749883 219.45152908 151.22957602 217.57226562 147.84985352 C213.32095025 144.85266321 208.23980923 143.23121429 203.37011719 141.51000977 C201.3527851 140.76926208 199.45930322 139.87735043 197.57226562 138.84985352 Z M172.57226562 311.84985352 C157.26322933 329.76114914 149.48067249 352.22066978 150.79101562 375.78344727 C152.76696083 397.76348539 161.82336885 416.49180527 177.57226562 431.84985352 C178.30058594 432.58719727 179.02890625 433.32454102 179.77929688 434.08422852 C195.54272519 449.1750059 218.14325903 456.42156297 239.65991211 456.27148438 C262.75848825 455.52573386 284.57176239 445.50869588 300.57226562 428.84985352 C317.08277283 409.91508328 325.19006513 387.05213637 323.57226562 361.84985352 C321.4220156 342.39857862 313.41541592 325.54201766 300.57226562 310.84985352 C299.70214844 309.83665039 299.70214844 309.83665039 298.81445312 308.80297852 C288.99730491 298.17835924 276.15284912 291.34212076 262.57226562 286.84985352 C261.11046875 286.34131836 261.11046875 286.34131836 259.61914062 285.82250977 C228.58862235 276.8203407 194.15807087 288.6265572 172.57226562 311.84985352 Z M51.57226562 362.84985352 C51.99227787 368.73002494 52.979621 374.41604241 54.25976562 380.16235352 C54.39608398 380.85586914 54.53240234 381.54938477 54.67285156 382.26391602 C55.52816392 385.89678913 56.3931824 387.69322173 59.22070312 390.16625977 C62.93503683 392.03208474 66.51719587 393.35539433 70.50976562 394.47485352 C71.61976929 394.79232544 71.61976929 394.79232544 72.75219727 395.11621094 C94.92294924 401.20104772 114.99367376 398.62660137 136.57226562 391.84985352 C136.07726562 378.97985352 136.07726562 378.97985352 135.57226562 365.84985352 C133.28289062 366.32422852 130.99351562 366.79860352 128.63476562 367.28735352 C104.86782436 372.21203504 80.38461597 370.90044024 57.25976562 363.61938477 C54.55749992 362.71221614 54.55749992 362.71221614 51.57226562 362.84985352 Z M61.57226562 407.84985352 C62.28097983 415.45165707 63.4434406 422.95582821 64.92431641 430.44384766 C65.18988413 431.84092938 65.43370884 433.24231751 65.65576172 434.64697266 C67.0023512 443.46846905 67.0023512 443.46846905 72.56469727 450.09301758 C75.87659968 451.64919863 79.05694443 452.8445111 82.57226562 453.84985352 C83.47195068 454.11290283 84.37163574 454.37595215 85.29858398 454.64697266 C99.2829203 458.30170646 114.9858789 455.71448011 127.75390625 449.19696045 C131.03829916 446.76376241 131.43798074 443.58715075 132.13867188 439.72485352 C132.39160255 438.54898682 132.39160255 438.54898682 132.64964294 437.34936523 C132.99852593 435.69850548 133.33126697 434.04416088 133.64868164 432.38696289 C134.13457276 429.85086017 134.66595738 427.32782616 135.20703125 424.80297852 C135.54108486 423.1941563 135.87255478 421.58479499 136.20117188 419.97485352 C136.35622696 419.22059082 136.51128204 418.46632813 136.67103577 417.68920898 C137.62612832 412.71153507 137.62612832 412.71153507 136.57226562 407.84985352 C135.27869141 408.24817383 135.27869141 408.24817383 133.95898438 408.65454102 C110.84853549 415.34119676 88.75563182 414.78796225 65.57226562 408.84985352 C64.2391301 408.51572994 62.90584728 408.18219199 61.57226562 407.84985352 Z " fill="#8BE23D" transform="translate(156.427734375,31.150146484375)"/>
<path d="M0 0 C1.17658424 -0.02398109 1.17658424 -0.02398109 2.37693787 -0.04844666 C3.21555862 -0.05380936 4.05417938 -0.05917206 4.91821289 -0.06469727 C6.22369835 -0.07823997 6.22369835 -0.07823997 7.55555725 -0.09205627 C9.39377408 -0.10654421 11.2320423 -0.11544189 13.0703125 -0.11914062 C15.87791897 -0.13104859 18.68333493 -0.18025568 21.49047852 -0.23071289 C23.27887927 -0.24017639 25.0672935 -0.24741178 26.85571289 -0.25219727 C27.69230942 -0.27172958 28.52890594 -0.2912619 29.39085388 -0.31138611 C33.5681586 -0.27914842 35.47173751 -0.02777319 38.99145508 2.41430664 C41.39591459 5.95876003 41.53537814 7.88318793 41.44165039 12.13842773 C41.42553711 13.43071289 41.40942383 14.72299805 41.39282227 16.05444336 C41.35105188 17.40927805 41.30872723 18.76409576 41.26586914 20.11889648 C41.24076983 21.49320515 41.2179595 22.86755765 41.19750977 24.24194336 C41.13863375 27.59787624 41.05643334 30.95157738 40.95336914 34.30639648 C41.81091797 34.28544922 42.6684668 34.26450195 43.55200195 34.24291992 C46.74255386 34.17463122 49.9327326 34.12454135 53.1237793 34.08666992 C54.50313594 34.06659006 55.88240783 34.03931983 57.26147461 34.00463867 C59.24693893 33.95596831 61.23303168 33.9355323 63.21899414 33.91577148 C64.41298828 33.89482422 65.60698242 33.87387695 66.8371582 33.85229492 C69.95336914 34.30639648 69.95336914 34.30639648 72.33886719 35.7409668 C74.78795989 39.63255399 74.54505612 43.23042725 74.51977539 47.74389648 C74.52597397 48.66098389 74.53217255 49.57807129 74.53855896 50.52294922 C74.54565456 52.45954325 74.54248764 54.3961983 74.52978516 56.33276367 C74.5159156 59.29646935 74.54999685 62.25701982 74.58813477 65.22045898 C74.58908594 67.10327226 74.58722721 68.98608948 74.58227539 70.86889648 C74.5955336 71.75440186 74.60879181 72.63990723 74.62245178 73.55224609 C74.5601382 77.66729565 74.51461481 79.62913769 71.82739258 82.87182617 C68.39983083 84.58269542 66.16198085 84.76682775 62.34008789 84.69702148 C61.09291992 84.68413086 59.84575195 84.67124023 58.56079102 84.65795898 C57.2672168 84.62444336 55.97364258 84.59092773 54.64086914 84.55639648 C53.32795898 84.53834961 52.01504883 84.52030273 50.66235352 84.50170898 C47.42528426 84.45462434 44.18969862 84.3888669 40.95336914 84.30639648 C40.98479004 85.53942505 40.98479004 85.53942505 41.0168457 86.79736328 C41.10010223 90.52941612 41.15206161 94.26127342 41.20336914 97.99389648 C41.23688477 99.2874707 41.27040039 100.58104492 41.30493164 101.91381836 C41.32426758 103.78457031 41.32426758 103.78457031 41.34399414 105.69311523 C41.37541504 107.41340942 41.37541504 107.41340942 41.4074707 109.16845703 C40.82479833 113.19484844 40.11115072 114.7083125 36.95336914 117.30639648 C33.71870505 118.01912367 30.56253186 117.95957837 27.26196289 117.90014648 C26.32030777 117.90018677 25.37865265 117.90022705 24.40846252 117.90026855 C22.42051508 117.89491312 20.4325682 117.87732938 18.44482422 117.84838867 C15.39818842 117.80649713 12.35376024 117.80732283 9.30688477 117.81420898 C7.37522875 117.80371776 5.44358414 117.79078003 3.51196289 117.77514648 C2.59942245 117.77494507 1.68688202 117.77474365 0.74668884 117.77453613 C-0.52494362 117.75066833 -0.52494362 117.75066833 -1.82226562 117.72631836 C-2.56742935 117.71789917 -3.31259308 117.70947998 -4.08033752 117.70080566 C-6.6068519 117.19402448 -7.47495976 116.31717214 -9.04663086 114.30639648 C-10.14574635 111.00905003 -10.16057646 108.57680903 -10.14428711 105.10717773 C-10.14106445 103.89868164 -10.1378418 102.69018555 -10.13452148 101.44506836 C-10.12195313 99.55111328 -10.12195313 99.55111328 -10.10913086 97.61889648 C-10.10461914 96.3446582 -10.10010742 95.07041992 -10.09545898 93.75756836 C-10.08365959 90.60713085 -10.06719683 87.456787 -10.04663086 84.30639648 C-10.8686499 84.33258057 -11.69066895 84.35876465 -12.53759766 84.38574219 C-16.26958024 84.48981089 -20.00125746 84.55475777 -23.73413086 84.61889648 C-25.02770508 84.66079102 -26.3212793 84.70268555 -27.65405273 84.74584961 C-29.52480469 84.77001953 -29.52480469 84.77001953 -31.43334961 84.79467773 C-32.5802124 84.82086182 -33.7270752 84.8470459 -34.90869141 84.87402344 C-39.20117276 84.09754953 -40.55872919 82.8776839 -43.04663086 79.30639648 C-43.74243064 76.18991314 -43.72469513 73.17297642 -43.67553711 69.98999023 C-43.67794907 69.09651382 -43.68036102 68.20303741 -43.68284607 67.28248596 C-43.68186898 65.39889067 -43.66850825 63.51526618 -43.64355469 61.63183594 C-43.60919859 58.74957828 -43.62291351 55.87037984 -43.64233398 52.98803711 C-43.63543651 51.15534178 -43.62576502 49.32265435 -43.61303711 47.48999023 C-43.61799698 46.6294957 -43.62295685 45.76900116 -43.62806702 44.88243103 C-43.55493743 41.16779682 -43.44815541 38.9404689 -41.43212891 35.75683594 C-38.23358074 33.81204271 -36.04406045 33.85030123 -32.31225586 33.91577148 C-30.36899414 33.93510742 -30.36899414 33.93510742 -28.38647461 33.95483398 C-27.02318262 33.98825282 -25.65990137 34.02211258 -24.29663086 34.05639648 C-22.91775022 34.07646941 -21.53884174 34.09471881 -20.15991211 34.11108398 C-16.78811342 34.15824201 -13.41772399 34.22405111 -10.04663086 34.30639648 C-10.06234131 33.11880737 -10.06234131 33.11880737 -10.07836914 31.90722656 C-10.12000932 28.31114898 -10.14598279 24.7151222 -10.17163086 21.11889648 C-10.18838867 19.87301758 -10.20514648 18.62713867 -10.22241211 17.34350586 C-10.23208008 15.54042969 -10.23208008 15.54042969 -10.24194336 13.70092773 C-10.25765381 12.04347534 -10.25765381 12.04347534 -10.27368164 10.35253906 C-10.03757676 7.18492558 -9.58942093 5.08007133 -8.04663086 2.30639648 C-5.3088309 0.62580263 -3.19109759 0.04944808 0 0 Z M5.95336914 16.30639648 C5.90438477 18.44881836 5.85540039 20.59124023 5.80493164 22.79858398 C5.75094208 24.87043322 5.69362682 26.94216552 5.63598633 29.01391602 C5.5976724 30.45523388 5.56282371 31.89664817 5.53149414 33.33813477 C5.48589468 35.40863534 5.4278947 37.47847081 5.36743164 39.54858398 C5.33601074 40.79494629 5.30458984 42.04130859 5.2722168 43.32543945 C4.95336914 46.30639648 4.95336914 46.30639648 2.95336914 48.30639648 C-0.35567459 49.45400692 -3.64516426 49.50340498 -7.12475586 49.62280273 C-8.28491211 49.66469727 -9.44506836 49.7065918 -10.64038086 49.74975586 C-11.84694336 49.78907227 -13.05350586 49.82838867 -14.29663086 49.86889648 C-15.51866211 49.91208008 -16.74069336 49.95526367 -17.99975586 49.99975586 C-21.01524967 50.10576931 -24.03092554 50.20658089 -27.04663086 50.30639648 C-27.04663086 56.24639648 -27.04663086 62.18639648 -27.04663086 68.30639648 C-25.07178711 68.3437793 -23.09694336 68.38116211 -21.06225586 68.41967773 C-18.47369495 68.48532964 -15.88515414 68.55177724 -13.29663086 68.61889648 C-11.34370117 68.65273438 -11.34370117 68.65273438 -9.35131836 68.68725586 C-8.10092773 68.72270508 -6.85053711 68.7581543 -5.56225586 68.79467773 C-4.41015625 68.82086182 -3.25805664 68.8470459 -2.07104492 68.87402344 C1.30586448 69.35678955 2.72645552 69.71677598 4.95336914 72.30639648 C5.49926758 75.40087891 5.49926758 75.40087891 5.56274414 79.16186523 C5.5792804 79.82350174 5.59581665 80.48513824 5.612854 81.16682434 C5.66136202 83.27594249 5.68270841 85.38433972 5.70336914 87.49389648 C5.73152691 88.92557344 5.76145409 90.35721676 5.79321289 91.78881836 C5.87045073 95.29500997 5.91093144 98.79892051 5.95336914 102.30639648 C12.22336914 102.30639648 18.49336914 102.30639648 24.95336914 102.30639648 C24.99204102 99.23584961 24.99204102 99.23584961 25.03149414 96.10327148 C25.07322403 94.11414653 25.11509317 92.12502183 25.16088867 90.13598633 C25.18906013 88.75687997 25.21029386 87.3776133 25.22436523 85.99829102 C25.24584459 84.01216699 25.29460046 82.0263974 25.34399414 80.04077148 C25.36494141 78.84677734 25.38588867 77.6527832 25.4074707 76.42260742 C25.95336914 73.30639648 25.95336914 73.30639648 27.58422852 70.92358398 C30.68084224 68.80981963 32.73475648 68.76491671 36.46899414 68.69702148 C38.34458008 68.64868164 38.34458008 68.64868164 40.25805664 68.59936523 C42.21098633 68.5780957 42.21098633 68.5780957 44.20336914 68.55639648 C45.52079102 68.52674805 46.83821289 68.49709961 48.19555664 68.46655273 C51.44783048 68.39585113 54.70060406 68.34886078 57.95336914 68.30639648 C57.95336914 62.36639648 57.95336914 56.42639648 57.95336914 50.30639648 C56.13450195 50.25741211 54.31563477 50.20842773 52.44165039 50.15795898 C50.04970822 50.08291766 47.65778188 50.00737042 45.26586914 49.93139648 C43.46859375 49.88499023 43.46859375 49.88499023 41.63500977 49.83764648 C40.47807617 49.79897461 39.32114258 49.76030273 38.12915039 49.72045898 C37.06607666 49.68903809 36.00300293 49.65761719 34.90771484 49.62524414 C31.88714666 49.29924943 29.65979741 48.67311999 26.95336914 47.30639648 C25.53069052 44.46103924 25.73365045 41.94421097 25.63696289 38.76733398 C25.59506836 37.46538086 25.55317383 36.16342773 25.51000977 34.82202148 C25.47019615 33.44181603 25.43048392 32.06160766 25.39086914 30.68139648 C25.34767507 29.29336234 25.30406049 27.90534121 25.26000977 26.51733398 C25.1536498 23.1138152 25.05297996 19.71011948 24.95336914 16.30639648 C18.68336914 16.30639648 12.41336914 16.30639648 5.95336914 16.30639648 Z " fill="#8BE13D" transform="translate(378.046630859375,341.693603515625)"/>
</svg>
