<?xml version="1.0" encoding="UTF-8"?>
<svg version="1.1" xmlns="http://www.w3.org/2000/svg" width="512" height="512">
<path d="M0 0 C3.68773373 1.67624261 5.85783496 3.57253594 8 7 C8.92504099 9.77512297 9.12855278 11.45174132 9.1328125 14.31640625 C9.13410156 15.16396484 9.13539063 16.01152344 9.13671875 16.88476562 C9.13285156 17.76841797 9.12898438 18.65207031 9.125 19.5625 C9.12886719 20.41908203 9.13273437 21.27566406 9.13671875 22.15820312 C9.12768771 28.15932808 8.70159728 34.04121762 8 40 C8.68102783 39.64172119 9.36205566 39.28344238 10.0637207 38.91430664 C13.14543445 37.29471794 16.22894041 35.67857139 19.3125 34.0625 C20.38435547 33.49853516 21.45621094 32.93457031 22.56054688 32.35351562 C23.58857422 31.81533203 24.61660156 31.27714844 25.67578125 30.72265625 C26.62364502 30.22515869 27.57150879 29.72766113 28.5480957 29.21508789 C34.05578857 26.48564575 38.90947923 27.00586603 44.9453125 27.16015625 C47.88796449 27.14143388 50.47706517 26.72402393 53.33203125 26.01953125 C72.81574574 21.3276962 93.1449956 26.06074027 110.18408203 35.86621094 C114.83966421 38.77297669 118.90108077 42.36686705 123 46 C124.32246004 47.01433585 125.65197284 48.01989768 127 49 C127.57105469 48.443125 128.14210938 47.88625 128.73046875 47.3125 C146.29841321 30.77796404 165.74691837 24.23599732 189.453125 24.6953125 C208.70943898 25.49053912 226.64311555 34.22787562 240 48 C256.40272742 66.45619864 261.42262805 87.10424729 260.21875 111.14794922 C259.26728034 123.5531597 253.97124251 134.29688474 248 145 C247.46632813 145.96550781 246.93265625 146.93101562 246.3828125 147.92578125 C239.88415091 158.83771302 227.57052728 176.21473636 216 182 C209.80703883 182.57342233 209.80703883 182.57342233 206.625 180.3125 C204.78078193 177.68803583 204.07830977 176.21070053 204 173 C206.10677488 168.7578838 209.10145206 165.77320487 212.5 162.5625 C228.62389682 146.81781517 242.71068348 127.28889342 243.53833008 104.05224609 C243.61994356 94.80106917 242.68012912 86.59098995 239 78 C238.63777344 77.1234375 238.27554687 76.246875 237.90234375 75.34375 C230.6766298 59.47167326 217.93079706 50.23289872 202 44 C189.04410013 39.1963865 172.46300783 41.17061162 159.98828125 46.21875 C149.83100133 50.90072282 141.45512402 57.68678402 134.4375 66.37109375 C132.10493936 69.01423991 130.26972952 69.95240067 126.8125 70.5625 C120.29582845 69.60102387 116.59069043 65.00929317 112.625 60 C104.10971866 50.2682499 89.75902663 42.74069204 76.78710938 41.84765625 C74.29397702 41.74736935 71.80757862 41.70218118 69.3125 41.6875 C68.51658447 41.68194092 67.72066895 41.67638184 66.90063477 41.6706543 C61.64535342 41.73453668 56.95358238 42.17039681 52 44 C50.46601362 46.31624717 50.46601362 46.31624717 50 49.25 C46.5898028 61.68456184 39.33717689 71.36209815 31 81 C29.65991523 82.66124302 28.32458344 84.32637093 27 86 C28.57900098 89.54028641 30.73452938 92.33485444 33.125 95.375 C48.20268856 115.14440799 57.65113968 139.86598495 56 165 C56.6290625 165.07476562 57.258125 165.14953125 57.90625 165.2265625 C66.98405257 166.62104422 72.95996882 170.9312965 78.68359375 178.02734375 C81.52917667 182.29149619 83.93071767 187.1142538 84.05541992 192.30834961 C84.16841825 197.45566894 84.16841825 197.45566894 86.4440918 201.94018555 C88.44060156 203.75832903 90.49970456 205.35488461 92.6875 206.9375 C93.45191406 207.52668213 94.21632813 208.11586426 95.00390625 208.72290039 C96.56835607 209.925961 98.14181272 211.11740127 99.72412109 212.296875 C102.43959298 214.32896381 105.09367079 216.43062884 107.74584961 218.54418945 C109.45357868 219.90062784 111.17376562 221.23942006 112.8984375 222.57421875 C114.86351805 224.11113943 116.80915918 225.67352648 118.7265625 227.26953125 C119.51804687 227.92308594 120.30953125 228.57664063 121.125 229.25 C121.78757812 229.81203125 122.45015625 230.3740625 123.1328125 230.953125 C124.91248898 232.15695923 124.91248898 232.15695923 126.8515625 231.96875 C130.01996857 230.5400869 132.57431477 228.42851399 135.25 226.25 C135.8584375 225.76337891 136.466875 225.27675781 137.09375 224.77539062 C139.06905483 223.1915334 141.03549898 221.59723306 143 220 C143.65677734 219.46697266 144.31355469 218.93394531 144.99023438 218.38476562 C147.66909438 216.20966773 150.3465613 214.03288766 153.02075195 211.85205078 C158.58583919 207.31823471 164.20410908 202.85769512 169.875 198.45703125 C171.82024026 196.92758609 173.74207044 195.36725244 175.625 193.76171875 C179.10855315 190.82541297 181.21919541 189.15616092 185.75 188.25 C189.97797077 189.22568556 191.55942494 190.41540538 194 194 C194.14917328 198.17685185 193.73834685 200.17961461 190.92578125 203.3046875 C187.40679854 206.54647398 183.76875386 209.60074031 180.0625 212.625 C179.31250732 213.23964111 178.56251465 213.85428223 177.78979492 214.48754883 C171.49956183 219.62671522 165.13384 224.6631817 158.72363281 229.65136719 C156.91992766 231.06265151 155.12696682 232.48673242 153.3359375 233.9140625 C133.49752478 249.69983499 133.49752478 249.69983499 123 249 C116.37502123 247.0277841 112.05086367 244.00314671 106.875 239.5 C105.38909032 238.24222502 103.90209396 236.9857328 102.4140625 235.73046875 C101.67704102 235.10446777 100.94001953 234.4784668 100.18066406 233.83349609 C96.92200827 231.09362764 93.59705448 228.44316738 90.25 225.8125 C89.69038574 225.36777344 89.13077148 224.92304688 88.55419922 224.46484375 C85.49111141 222.05846553 82.38638357 219.92522177 79 218 C78.835 218.804375 78.67 219.60875 78.5 220.4375 C74.28488097 230.4484077 65.00685078 236.8432947 55.35546875 241.19140625 C53 242 53 242 50 242 C49.92523438 242.79921875 49.85046875 243.5984375 49.7734375 244.421875 C48.48543409 255.18049174 44.97000651 263.67220001 38 272 C56.40167106 272.66915167 75.49867267 268.79042138 92.625 262.1875 C100.40495467 259.27807317 107.0846868 258.5286349 114.875 261.75 C122.94045081 265.89753609 127.13737858 271.41213575 130 280 C130.89590844 293.62955784 129.78791743 304.24123849 120.71875 315.078125 C118.55736058 317.49495135 116.37953575 319.79457662 114 322 C113.50886719 322.50789063 113.01773437 323.01578125 112.51171875 323.5390625 C94.35475296 341.17265677 66.78397956 345.0257789 43 349 C45.6129964 361.69781831 45.6129964 361.69781831 53.87109375 371.02685547 C56.30602058 372.41515649 58.76550102 373.74427654 61.25439453 375.03320312 C77.80936026 384.20210722 93.84439259 403.24462987 100 421 C100 421.99 100 422.98 100 424 C100.75023437 423.96519531 101.50046875 423.93039062 102.2734375 423.89453125 C110.59597766 423.67441369 118.58326092 424.0918265 125.4375 429.3125 C130.10632097 434.20906833 131.33888876 438.70982808 132.1796875 445.2421875 C131.61200255 453.95491745 126.32310369 460.03136937 121.125 466.625 C120.41730469 467.54023438 119.70960938 468.45546875 118.98046875 469.3984375 C117.00359688 471.94591484 115.0057055 474.47520197 113 477 C112.5270752 477.61101562 112.05415039 478.22203125 111.56689453 478.8515625 C108.92605416 482.18253971 106.22491199 484.50134437 102.625 486.75 C101.73039062 487.32234375 100.83578125 487.8946875 99.9140625 488.484375 C83.06819737 497.2460314 60.47013265 490.45699041 42.9375 487.4375 C39.08651294 486.77719973 35.23503913 486.12150447 31.38075256 485.48072815 C29.0013848 485.08504334 26.6238035 484.67840185 24.2485199 484.25889587 C14.32791541 482.60673095 6.85098731 483.40727213 -2.5 486.875 C-17.33758199 492.09522731 -32.83099002 494.14641532 -48.53125 494.16796875 C-49.40664429 494.17129715 -50.28203857 494.17462555 -51.18395996 494.17805481 C-53.02595501 494.18308093 -54.86795903 494.18546448 -56.70996094 494.18530273 C-59.46565591 494.18747295 -62.22093889 494.20563057 -64.9765625 494.22460938 C-85.51734407 494.29082501 -106.73209351 492.99050873 -125.484375 483.85546875 C-139.22915276 480.51090616 -156.90933006 486.31518883 -170.56665039 488.63696289 C-192.48262489 492.345673 -192.48262489 492.345673 -203.19921875 492.375 C-204.25486275 492.37857262 -204.25486275 492.37857262 -205.33183289 492.38221741 C-215.88839451 492.15756496 -223.81236618 487.35015908 -231 480 C-236.05807578 474.53395452 -240.54341199 468.73868834 -244.875 462.6875 C-245.45507812 461.89021484 -246.03515625 461.09292969 -246.6328125 460.27148438 C-251.94717625 452.88973379 -252.95306372 447.16240801 -252 438 C-249.94645348 432.35274706 -246.37136541 428.68568271 -241 426 C-234.4232337 423.76055316 -227.88105159 423.76848798 -221 424 C-220.89429688 423.30261719 -220.78859375 422.60523438 -220.6796875 421.88671875 C-219.89935672 418.57255525 -218.64538236 415.85704677 -217.125 412.8125 C-216.61195313 411.76707031 -216.09890625 410.72164063 -215.5703125 409.64453125 C-214 407 -214 407 -211 405 C-207.52441797 404.46044392 -204.18308436 404.3512118 -201.0625 406.0625 C-199.20414516 409.45126471 -198.47377213 413.11610909 -199.52954102 416.89575195 C-200.35649448 418.85632186 -201.27092162 420.73595466 -202.25 422.625 C-202.56324219 423.26695312 -202.87648437 423.90890625 -203.19921875 424.5703125 C-206.12462493 430.49395656 -208.52026738 435.16418716 -214 439 C-217.38631862 440.12877287 -220.31288266 440.2891347 -223.875 440.5 C-228.01187126 440.74592865 -231.95633937 441.07749187 -236 442 C-234.98887501 448.50008923 -231.59712948 452.29245485 -227.37890625 457.21484375 C-225.2327661 459.72748402 -223.23114157 462.29452652 -221.25 464.9375 C-217.48753839 469.79228918 -213.88962497 473.03870483 -208 475 C-198.71576009 475.79474711 -189.62728584 474.61501962 -180.48828125 473.06640625 C-179.27222702 472.86901352 -178.05617279 472.67162079 -176.80326843 472.46824646 C-172.97123404 471.84332572 -169.14197759 471.20288006 -165.3125 470.5625 C-162.70393269 470.13640969 -160.0952097 469.71127125 -157.48632812 469.28710938 C-155.00767422 468.8810515 -152.52915342 468.47418015 -150.05078125 468.06640625 C-148.30248772 467.77885216 -148.30248772 467.77885216 -146.51887512 467.48548889 C-144.90525337 467.21532204 -144.90525337 467.21532204 -143.2590332 466.93969727 C-142.31308792 466.78203384 -141.36714264 466.62437042 -140.39253235 466.46192932 C-137.86778937 466.02851391 -137.86778937 466.02851391 -135 465 C-133.90501544 433.50655943 -141.59213242 408.43643364 -162 384 C-167.7578367 384.51156583 -171.38083399 388.03212494 -175.74023438 391.49414062 C-178.73000826 393.75852675 -180.47010318 394.92828941 -184.26171875 395.44140625 C-188.23668282 394.80064885 -189.64092451 393.19169037 -192 390 C-192.67656897 386.39163216 -192.46946784 384.74941436 -190.51953125 381.63671875 C-187.74304197 378.73109043 -185.02117487 377.16056009 -181.55029297 375.20605469 C-173.35091188 370.49475337 -168.57351888 366.51418501 -165.875 357.25 C-165.1419842 354.5026917 -164.54034574 351.79489174 -164 349 C-164.69859131 348.87471924 -165.39718262 348.74943848 -166.11694336 348.62036133 C-194.41093426 343.49691139 -225.75522984 337.52277086 -243.7890625 312.51953125 C-250.58427432 301.72418243 -253.18867699 290.80996292 -250.34375 278.05859375 C-247.92155852 271.220079 -244.00480012 266.26826494 -237.67578125 262.68359375 C-227.17382648 257.9519438 -218.43047209 260.09138645 -207.9375 263.8125 C-197.9931208 267.16884714 -188.40188502 269.66671971 -178 271 C-177.02933594 271.12890625 -176.05867188 271.2578125 -175.05859375 271.390625 C-169.6910332 272.01342592 -164.40028678 272.0871014 -159 272 C-159.68835938 271.12601562 -159.68835938 271.12601562 -160.390625 270.234375 C-166.80616266 261.66235409 -170.8350372 252.85548356 -170 242 C-170.94875 241.95875 -171.8975 241.9175 -172.875 241.875 C-182.7348097 240.38710115 -190.95733355 232.42831238 -197 225 C-204.14914832 213.40479043 -206.98722974 201.46963319 -204.41796875 187.93359375 C-201.73705441 179.3277363 -195.86673758 171.75987947 -187.875 167.4375 C-184.29121905 165.90467803 -180.8719105 165.32265921 -177 165 C-177.05220703 164.10474609 -177.05220703 164.10474609 -177.10546875 163.19140625 C-178.01881342 133.92088435 -164.64094212 106.36259779 -145.1484375 85.2734375 C-144.43945312 84.52320312 -143.73046875 83.77296875 -143 83 C-142.41476563 82.37351562 -141.82953125 81.74703125 -141.2265625 81.1015625 C-137.99182852 77.74533616 -134.62358166 74.96156117 -130.875 72.1875 C-126.40391229 68.70773943 -124.44928285 65.49722138 -122.1796875 60.38671875 C-118.1235237 52.18037411 -110.16631406 48.30493155 -102 45 C-96.73303047 43.27087127 -91.38700108 42.21117061 -85.921875 41.33203125 C-66.25592407 38.16698671 -50.88971948 30.0442366 -35.3371582 17.86938477 C-10.63293556 -1.40434998 -10.63293556 -1.40434998 0 0 Z M-12.640625 21.4921875 C-13.37418213 22.0274707 -14.10773926 22.56275391 -14.86352539 23.11425781 C-16.04483032 23.9858252 -16.04483032 23.9858252 -17.25 24.875 C-18.06267334 25.46635742 -18.87534668 26.05771484 -19.71264648 26.66699219 C-23.39464753 29.34652009 -27.06291762 32.04262291 -30.70703125 34.7734375 C-48.05938688 47.66853624 -65.50865367 54.66718366 -86.80761719 57.91430664 C-95.08251177 59.22860833 -103.75176301 61.97111118 -109 69 C-110.13559654 71.82730444 -110.13559654 71.82730444 -110 75 C-108.57771293 77.31745458 -107.31994998 78.97874027 -105.5 80.9375 C-105.00661133 81.49034668 -104.51322266 82.04319336 -104.00488281 82.61279297 C-102.35999051 84.43171305 -100.68446329 86.21770172 -99 88 C-98.13084961 88.93271729 -98.13084961 88.93271729 -97.24414062 89.88427734 C-85.00747682 102.92493133 -70.45202274 117.37547427 -52 120 C-52.03480469 118.90300781 -52.06960937 117.80601563 -52.10546875 116.67578125 C-52.13361865 115.22136955 -52.16091752 113.7669412 -52.1875 112.3125 C-52.21263672 111.59126953 -52.23777344 110.87003906 -52.26367188 110.12695312 C-52.32667231 105.52792109 -51.88572296 102.62565193 -49 99 C-43.94223452 95.62815634 -38.66787868 96.86642426 -33 98 C-17.661387 99.0763939 -4.30256988 92.01842668 7.125 82.375 C18.34373248 72.53834124 27.07581568 61.21578883 34 48 C34 47.34 34 46.68 34 46 C28.31052448 47.70152539 23.31506182 50.30355094 18.09765625 53.078125 C10.59461718 56.95252668 2.02824065 59.90365494 -6.375 57.25 C-8.52682862 55.59474722 -9.17465186 54.61360243 -10 52 C-10.21472844 46.42302516 -9.67631707 41.49757585 -8.5 36.0625 C-7.32175129 30.27432796 -6.6834794 24.90838451 -7 19 C-9.64425773 19 -10.51808399 19.9324177 -12.640625 21.4921875 Z M-134.3125 97.26171875 C-151.97140837 115.8351063 -161.48360227 140.61146732 -161.2109375 166.16015625 C-160.47102388 179.6293246 -156.78567851 192.18487048 -150.34375 204.05078125 C-147.58942571 210.09588253 -147.94831892 217.0019786 -150.125 223.20703125 C-150.57875 224.25246094 -151.0325 225.29789063 -151.5 226.375 C-154.96762268 234.61184584 -155.66915127 242.69762097 -152.9609375 251.30078125 C-146.64754858 265.17965579 -134.93908755 273.08252871 -121.0625 278.41625977 C-80.82532256 293.01980337 -30.98906714 292.35452545 8.0859375 274.59765625 C17.8988209 269.63624041 27.81419826 261.97075101 31.99609375 251.5078125 C34.99731646 242.09064257 34.19334922 234.55255965 30.4375 225.5 C27.25263626 217.50973892 26.3295903 211.77660106 29.6953125 203.69921875 C31.08545243 200.54858762 32.54892685 197.43605334 34.0234375 194.32421875 C42.93792862 175.33445245 42.02090629 152.39953495 35.26855469 132.88623047 C30.4690411 120.04224915 23.3413219 108.05988513 14 98 C10.60189863 99.24479061 7.90187994 100.66442871 5 102.8125 C-7.41979184 111.25053133 -21.30142151 113.46173545 -36 113 C-36.01417969 113.70125 -36.02835937 114.4025 -36.04296875 115.125 C-36.37766572 121.78275591 -37.19754119 127.10173153 -42 132 C-47.00834593 135.46382202 -52.35975529 135.3315141 -58.21484375 134.56640625 C-82.31103311 129.66605919 -105.67379903 106.922086 -119.79296875 87.546875 C-120.19128906 87.03640625 -120.58960938 86.5259375 -121 86 C-125.08070763 86 -131.48801091 94.49925392 -134.3125 97.26171875 Z M-184 185 C-188.7082936 190.21729831 -189.36362462 194.24464143 -189.2734375 201.08984375 C-188.50962372 209.21900468 -183.86806119 215.56879649 -178 221 C-173.42893653 224.61873375 -173.42893653 224.61873375 -168 226 C-167.31904891 224.63201789 -166.65591761 223.25515997 -166 221.875 C-165.62875 221.10929687 -165.2575 220.34359375 -164.875 219.5546875 C-163.44534274 215.38059889 -163.49109409 212.26789273 -165.13671875 208.16796875 C-165.64847656 207.18441406 -166.16023438 206.20085937 -166.6875 205.1875 C-170.48083827 197.40259675 -172.74302013 189.33884154 -175 181 C-179.09632497 181 -180.76067881 182.55398196 -184 185 Z M54 181 C53.70867187 182.14855469 53.41734375 183.29710937 53.1171875 184.48046875 C50.82431891 193.24676237 48.34338352 201.18818242 44.0390625 209.203125 C42.29364054 213.90132847 43.77738377 217.87340256 45.5625 222.375 C46.036875 223.57125 46.51125 224.7675 47 226 C53.00142885 225.14566654 56.73377089 222.17625591 61 218 C67.1708502 209.51989193 68.9277615 202.46308801 68 192 C65.88025926 187.52499178 63.12885367 184.7190012 59 182 C57.34271246 181.62279065 55.67601492 181.28260018 54 181 Z M-234 281 C-236.33168681 285.66337361 -235.67739534 291.77285631 -234.19921875 296.6328125 C-227.89256273 310.45977655 -214.45113962 318.77351015 -200.75 324.1875 C-186.27358183 329.54947013 -170.24848809 332.10708926 -154.890625 333.25 C-150.93766826 334.27563202 -149.46369963 335.76101028 -147 339 C-146.01 342.96 -146.01 342.96 -145 347 C-88.9 347 -32.8 347 25 347 C25.33 344.36 25.66 341.72 26 339 C28.08365294 335.62209568 29.78097194 334.31277991 33.63378906 333.32421875 C36.95799836 332.77420749 40.27613366 332.3708422 43.625 332 C68.21639938 328.80520307 93.47042612 323.13909308 110 303 C113.10612604 297.80882251 115.75071969 291.84660799 114.55859375 285.73828125 C113.5159489 282.03838153 112.59606286 279.5790325 109.8125 276.875 C103.36362117 274.86868214 96.93735816 277.56315894 90.875 279.8125 C83.8798735 282.27226776 76.9218947 284.00156433 69.625 285.3125 C68.7469873 285.47145752 67.86897461 285.63041504 66.96435547 285.79418945 C56.48499149 287.5753484 46.30336004 288.06743485 35.68334961 287.78222656 C22.67828971 287.47392552 12.73830436 288.05802956 1 294 C-6.22026212 296.37128608 -13.61148842 298.22675722 -21 300 C-21.15855469 300.67804688 -21.31710938 301.35609375 -21.48046875 302.0546875 C-24.19954961 312.90096586 -27.97197027 321.97125713 -37 329 C-47.03192357 334.98343216 -57.48253851 336.86530159 -68.9609375 334.3515625 C-78.55804047 330.80941409 -86.49847831 324.23216276 -91 315 C-91.72260379 312.54582343 -92.43020959 310.0871952 -93.125 307.625 C-94.65775094 302.77375566 -94.65775094 302.77375566 -98.34765625 299.61328125 C-101.55362066 298.85037638 -104.73344578 298.43717267 -108 298 C-111.04715703 297.29986447 -114.05168153 296.46616063 -117.0625 295.625 C-117.78139404 295.43929443 -118.50028809 295.25358887 -119.2409668 295.06225586 C-123.52877617 293.9045232 -127.20265854 292.39889579 -131.14453125 290.34375 C-137.94149386 287.16912076 -144.25850157 287.57151647 -151.625 287.875 C-154.38265543 287.93921315 -157.14019581 287.97581739 -159.8984375 288.00390625 C-160.92819702 288.01543983 -160.92819702 288.01543983 -161.97875977 288.02720642 C-181.77109924 288.14607448 -201.82757345 284.44715698 -220.06640625 276.734375 C-226.50353287 274.28956731 -229.47996855 276.58508556 -234 281 Z M-79 303 C-74.1504199 312.9211177 -74.1504199 312.9211177 -66 319 C-61.17850066 320.60716645 -55.891602 320.93751158 -51 319.3515625 C-43.98687803 315.68845861 -40.453116 310.35934799 -38 303 C-51.53 303 -65.06 303 -79 303 Z M-151 363 C-152.1630458 366.36498878 -152.1630458 366.36498878 -153 370 C-151.37448309 372.75132309 -151.37448309 372.75132309 -148.6875 375.0625 C-134.25863525 389.49136475 -125.57787522 409.32134085 -121 429 C-120.81163574 429.79865479 -120.62327148 430.59730957 -120.42919922 431.42016602 C-118.76342242 439.35058445 -118.77015569 447.1104559 -118.875 455.1875 C-118.8850607 456.53449847 -118.89418103 457.88150431 -118.90234375 459.22851562 C-118.92569396 462.48587021 -118.9584423 465.74283549 -119 469 C-112.94798946 471.9506372 -107.16390178 473.90404453 -100.5625 475.1875 C-99.38977539 475.4340332 -99.38977539 475.4340332 -98.19335938 475.68554688 C-85.90425966 478.17971913 -73.68017992 478.24177306 -61.1875 478.25 C-60.2699292 478.25067474 -59.3523584 478.25134949 -58.40698242 478.25204468 C-38.63665228 478.22892022 -20.81452395 476.23862983 -2 470 C-2.02094727 469.2565332 -2.04189453 468.51306641 -2.06347656 467.74707031 C-2.91675786 432.69773084 4.31338564 399.76845052 29.125 373.625 C31.81850342 370.66877372 31.81850342 370.66877372 32 366.5625 C31.23848651 364.10459935 31.23848651 364.10459935 30 363 C27.65972876 362.90237776 25.34901619 362.87002396 23.00828552 362.87974548 C21.89831942 362.87846385 21.89831942 362.87846385 20.76592976 362.87715632 C18.26767587 362.87549931 15.76948802 362.88102647 13.27124023 362.88647461 C11.48786419 362.88675646 9.70448803 362.88659879 7.92111206 362.8860321 C3.06387809 362.88574404 -1.79333141 362.89164212 -6.65055966 362.89860606 C-11.72080948 362.90483821 -16.79105981 362.90544329 -21.86131287 362.90663147 C-31.46963693 362.9097452 -41.07794968 362.91795914 -50.68626875 362.92798096 C-61.62199528 362.93914081 -72.55772234 362.94465222 -83.49345315 362.94967639 C-105.99564172 362.96014172 -128.49782022 362.97774196 -151 363 Z M39.01953125 384.9140625 C23.08760704 404.48354109 12.75691602 428.28322189 12.875 453.75 C12.87113281 454.59949219 12.86726563 455.44898438 12.86328125 456.32421875 C12.86457031 457.14019531 12.86585938 457.95617187 12.8671875 458.796875 C12.86831543 459.53260742 12.86944336 460.26833984 12.87060547 461.02636719 C12.93023708 463.21318851 12.93023708 463.21318851 14 466 C25.56033621 468.22025155 37.1426488 470.28525858 48.75463867 472.21704102 C50.62916955 472.53111988 52.50287805 472.85014631 54.37573242 473.17407227 C75.7976342 477.86789124 75.7976342 477.86789124 95.80126953 471.96972656 C99.80613418 468.38197973 102.87068227 464.26895991 105.9375 459.875 C106.58267578 458.98167969 107.22785156 458.08835937 107.89257812 457.16796875 C109.0838257 455.51627004 110.26769476 453.85920212 111.44116211 452.19482422 C112.48860103 450.72004334 113.58924067 449.28177751 114.73657227 447.88330078 C115.36196899 446.95106689 115.36196899 446.95106689 116 446 C115.58612501 443.25696427 115.58612501 443.25696427 114 441 C110.6612506 439.77681762 107.21107197 439.79890132 103.6875 439.625 C97.15236651 439.13413235 92.37938025 438.72928911 87.875 433.5625 C86.15164403 430.64216875 85.03023531 427.53285598 83.8125 424.375 C76.52564176 406.48907522 60.31958347 392.6064292 44 383 C40.900488 382.65252561 40.900488 382.65252561 39.01953125 384.9140625 Z " fill="#8BE23D" transform="translate(252,9)"/>
<path d="M0 0 C0.66677261 -0.00619858 1.33354523 -0.01239716 2.02052307 -0.01878357 C3.42488146 -0.0258584 4.82932414 -0.02274844 6.23364258 -0.01000977 C8.37023989 0.00385003 10.50244454 -0.03022564 12.63867188 -0.06835938 C24.01359124 -0.13428981 24.01359124 -0.13428981 27.8515625 2.8515625 C30.62639111 6.4562464 31.0729178 9.20688228 31.0390625 13.67578125 C31.03422852 14.80693359 31.03422852 14.80693359 31.02929688 15.9609375 C31.01672852 17.12689453 31.01672852 17.12689453 31.00390625 18.31640625 C30.99939453 19.10917969 30.99488281 19.90195313 30.99023438 20.71875 C30.9784919 22.66800133 30.96055771 24.61721363 30.94140625 26.56640625 C32.24335938 26.50839844 33.5453125 26.45039062 34.88671875 26.390625 C36.61324526 26.34370852 38.33981073 26.29821039 40.06640625 26.25390625 C41.3503125 26.19106445 41.3503125 26.19106445 42.66015625 26.12695312 C47.00975683 26.04330696 50.01107739 26.12063157 53.49609375 28.8984375 C58.31958721 34.16113084 57.16189776 40.54420858 57.19140625 47.31640625 C57.21203125 48.48429687 57.23265625 49.6521875 57.25390625 50.85546875 C57.30622583 62.39193581 57.30622583 62.39193581 53.94140625 67.56640625 C49.18796242 71.04333178 44.70923787 70.94040662 39.06640625 70.75390625 C37.89078125 70.73360352 37.89078125 70.73360352 36.69140625 70.71289062 C34.77443843 70.67782414 32.85782874 70.62402697 30.94140625 70.56640625 C30.99361328 72.17708984 30.99361328 72.17708984 31.046875 73.8203125 C31.07503543 75.25649464 31.10233316 76.69269387 31.12890625 78.12890625 C31.15404297 78.83337891 31.17917969 79.53785156 31.20507812 80.26367188 C31.27683208 85.45387448 30.53009966 89.02355817 27.94140625 93.56640625 C22.08202675 98.01786911 15.54813495 97.04190846 8.50390625 97.00390625 C6.5384082 97.03387695 6.5384082 97.03387695 4.53320312 97.06445312 C3.26669922 97.06380859 2.00019531 97.06316406 0.6953125 97.0625 C-0.45638428 97.06435303 -1.60808105 97.06620605 -2.79467773 97.06811523 C-6.77112932 96.45687969 -8.94248779 95.06951713 -12.05859375 92.56640625 C-14.40918282 87.87866005 -14.30398968 83.31286395 -14.18359375 78.19140625 C-14.17457031 77.45535156 -14.16554688 76.71929687 -14.15625 75.9609375 C-14.13289519 74.16261745 -14.09703211 72.36446714 -14.05859375 70.56640625 C-15.79496094 70.61861328 -15.79496094 70.61861328 -17.56640625 70.671875 C-19.10545415 70.70002832 -20.64451786 70.72732681 -22.18359375 70.75390625 C-22.94414062 70.77904297 -23.7046875 70.80417969 -24.48828125 70.83007812 C-29.40259917 70.89362534 -32.91316624 70.50018803 -37.05859375 67.56640625 C-41.36487755 62.06342885 -40.46286926 55.15212409 -40.37109375 48.50390625 C-40.37431641 47.33279297 -40.37753906 46.16167969 -40.38085938 44.95507812 C-40.30667728 33.13315017 -40.30667728 33.13315017 -36.046875 28.26953125 C-31.76211837 25.82750002 -28.08248244 26.12886545 -23.24609375 26.31640625 C-22.36244141 26.33445312 -21.47878906 26.3525 -20.56835938 26.37109375 C-18.39796832 26.41802112 -16.22813856 26.48975894 -14.05859375 26.56640625 C-14.08179688 25.48101562 -14.105 24.395625 -14.12890625 23.27734375 C-14.14767645 21.83203818 -14.16587531 20.3867251 -14.18359375 18.94140625 C-14.20035156 18.22855469 -14.21710938 17.51570313 -14.234375 16.78125 C-14.27513732 12.33815758 -14.01369782 8.65222254 -12.05859375 4.56640625 C-8.14590853 0.66353956 -5.45950862 0.04810611 0 0 Z M1.94140625 16.56640625 C1.915625 17.87996094 1.88984375 19.19351563 1.86328125 20.546875 C1.80698796 22.28258475 1.7496409 24.01826055 1.69140625 25.75390625 C1.67013672 27.05038086 1.67013672 27.05038086 1.6484375 28.37304688 C1.49055877 32.49368184 1.27041936 35.00779921 -0.85546875 38.6171875 C-4.03832854 41.43322835 -7.02345354 41.6630276 -11.16796875 41.8828125 C-11.92207031 41.92470703 -12.67617188 41.96660156 -13.453125 42.00976562 C-14.61908203 42.06874023 -14.61908203 42.06874023 -15.80859375 42.12890625 C-16.60136719 42.17208984 -17.39414062 42.21527344 -18.2109375 42.25976562 C-20.1599719 42.36543616 -22.10926123 42.46638591 -24.05859375 42.56640625 C-24.05859375 46.52640625 -24.05859375 50.48640625 -24.05859375 54.56640625 C-22.08826172 54.62248047 -22.08826172 54.62248047 -20.078125 54.6796875 C-18.34242011 54.74536282 -16.60674428 54.81180962 -14.87109375 54.87890625 C-13.57461914 54.91274414 -13.57461914 54.91274414 -12.25195312 54.94726562 C-7.43515272 55.15027254 -3.94838668 55.40935988 -0.05859375 58.56640625 C1.11610069 60.91579513 1.14175514 62.5171383 1.2578125 65.13671875 C1.29970703 66.03261719 1.34160156 66.92851562 1.38476562 67.8515625 C1.42408203 68.78871094 1.46339844 69.72585937 1.50390625 70.69140625 C1.54708984 71.63628906 1.59027344 72.58117187 1.63476562 73.5546875 C1.74099565 75.89174797 1.84171896 78.22905755 1.94140625 80.56640625 C6.23140625 80.56640625 10.52140625 80.56640625 14.94140625 80.56640625 C14.98007812 78.47039062 14.98007812 78.47039062 15.01953125 76.33203125 C15.07581409 74.49345842 15.13316139 72.65491797 15.19140625 70.81640625 C15.20558594 69.89601562 15.21976562 68.975625 15.234375 68.02734375 C15.48238886 61.18216129 15.48238886 61.18216129 17.86328125 57.98828125 C20.8724214 55.92939588 22.68911914 55.41817965 26.29296875 55.25 C27.14375 55.20810547 27.99453125 55.16621094 28.87109375 55.12304688 C29.76054687 55.08373047 30.65 55.04441406 31.56640625 55.00390625 C32.46359375 54.96072266 33.36078125 54.91753906 34.28515625 54.87304688 C36.50371864 54.7668391 38.7225419 54.66610666 40.94140625 54.56640625 C40.94140625 50.60640625 40.94140625 46.64640625 40.94140625 42.56640625 C39.78382813 42.52902344 38.62625 42.49164063 37.43359375 42.453125 C35.89450064 42.387432 34.35543955 42.32098583 32.81640625 42.25390625 C32.05585938 42.23134766 31.2953125 42.20878906 30.51171875 42.18554688 C25.65866177 41.95544504 22.13623385 41.2503309 17.94140625 38.56640625 C15.89012781 35.48948859 15.66879753 34.62995626 15.52734375 31.1171875 C15.46933594 29.84584961 15.46933594 29.84584961 15.41015625 28.54882812 C15.37921875 27.66775391 15.34828125 26.78667969 15.31640625 25.87890625 C15.25839844 24.53989258 15.25839844 24.53989258 15.19921875 23.17382812 C15.10500974 20.97169247 15.02212131 18.76907778 14.94140625 16.56640625 C10.65140625 16.56640625 6.36140625 16.56640625 1.94140625 16.56640625 Z " fill="#8BE23D" transform="translate(370.05859375,97.43359375)"/>
<path d="M0 0 C1.02049438 -0.0038269 2.04098877 -0.00765381 3.09240723 -0.01159668 C5.24406932 -0.01431145 7.39576465 -0.00698084 9.54736328 0.00976562 C12.83310817 0.03118064 16.11666654 0.0099483 19.40234375 -0.015625 C21.49740064 -0.01298165 23.59245617 -0.00785652 25.6875 0 C27.15491638 -0.01214539 27.15491638 -0.01214539 28.65197754 -0.02453613 C34.53017891 0.05592379 37.84688588 0.65649765 42.34375 4.53125 C46.97659706 10.30027097 45.99569989 17.55323693 45.34375 24.53125 C42.86948847 34.25065682 37.34119987 41.61553334 29.34375 47.53125 C21.27796058 52.0952255 12.22479945 52.72008913 3.34375 50.46875 C-5.81608005 47.4107322 -12.29918939 41.03589716 -16.65625 32.53125 C-19.97738552 24.76935373 -21.45000051 15.72455499 -18.53125 7.59375 C-13.94411526 0.10142992 -8.01795895 -0.06636235 0 0 Z M-3.65625 16.53125 C-2.67462476 24.38425188 -2.00444322 27.27942062 3.34375 32.53125 C7.8450709 35.28205721 11.32628026 36.0287445 16.42578125 35.1015625 C20.92319582 33.76424574 23.68749273 31.31166405 26.65625 27.78125 C28.88724963 23.94433126 28.88724963 23.94433126 29.34375 16.53125 C18.45375 16.53125 7.56375 16.53125 -3.65625 16.53125 Z " fill="#8BE23D" transform="translate(178.65625,225.46875)"/>
<path d="M0 0 C2.57097751 2.17727794 2.99489484 2.98277008 4 6.375 C4 10 4 10 2 12.9375 C-1.69807735 15.47992818 -3.59358003 15.56081709 -8 15 C-8.63550781 14.65453125 -9.27101562 14.3090625 -9.92578125 13.953125 C-12.44883544 12.79375546 -13.89728447 12.93390403 -16.625 13.3125 C-17.78902344 13.46138672 -17.78902344 13.46138672 -18.9765625 13.61328125 C-21.05895686 13.91641199 -21.05895686 13.91641199 -23 15 C-26.83614957 15.35519903 -29.14629634 15.54724594 -32.4375 13.4375 C-34.63021887 10.01685857 -34.63007693 7.99048721 -34 4 C-26.25920617 -6.64359151 -10.39066893 -6.5961996 0 0 Z " fill="#8BE23D" transform="translate(250,173)"/>
<path d="M0 0 C1.75390625 1.390625 1.75390625 1.390625 3 3 C3.75471698 9.79245283 3.75471698 9.79245283 1.4375 13.5 C-1.90028661 15.55402253 -4.14399755 15.41314312 -8 15 C-9.33333333 14.33333333 -10.66666667 13.66666667 -12 13 C-16.65145592 12.61975225 -16.65145592 12.61975225 -21 14 C-24.10922196 15.55461098 -26.58819639 15.36555039 -30 15 C-32.71604883 13.07017583 -33.74692606 11.65799225 -34.9375 8.5625 C-35.0232736 5.04578252 -34.23088111 3.71888635 -32 1 C-22.21832908 -6.04751712 -10.36617786 -5.78262534 0 0 Z " fill="#8BE23D" transform="translate(164,173)"/>
<path d="M0 0 C1.99301736 1.58066894 2.86543351 2.73086702 4 5 C4.16796875 7.0234375 4.16796875 7.0234375 4.1875 9.375 C4.20167969 10.14585937 4.21585938 10.91671875 4.23046875 11.7109375 C3.97316571 14.26652364 3.36765869 15.83532641 2 18 C-0.71575805 19.54137619 -2.44045054 20.0272951 -5.5625 19.875 C-8.86515152 18.68943279 -10.07233584 17.9985887 -12 15 C-12.63445651 10.36141795 -13.08822417 5.85283649 -10.66015625 1.71875 C-7.36109482 -1.69674889 -4.29721446 -1.07430361 0 0 Z " fill="#8BE23D" transform="translate(239,196)"/>
<path d="M0 0 C4.56424656 1.05955724 4.56424656 1.05955724 6.5 3.8125 C6.8984375 6.84375 6.8984375 6.84375 6.875 10.3125 C6.88273437 11.4571875 6.89046875 12.601875 6.8984375 13.78125 C6.5 16.8125 6.5 16.8125 5.15625 18.6640625 C2.60934713 20.43007534 0.57598239 20.6894607 -2.5 20.8125 C-5.32541554 19.5924342 -6.96715739 18.52295681 -8.8125 16.0625 C-10.13780889 11.72512545 -10.10880922 8.11709119 -8.1875 4 C-5.59989068 0.64569163 -4.279226 -0.22924425 0 0 Z " fill="#8AE23D" transform="translate(149.5,195.1875)"/>
</svg>
